G04 #@! TF.FileFunction,Legend,Top*
%FSLAX46Y46*%
G04 Gerber Fmt 4.6, Leading zero omitted, Abs format (unit mm)*
G04 Created by KiCad (PCBNEW 4.0.6) date 04/21/17 09:42:09*
%MOMM*%
%LPD*%
G01*
G04 APERTURE LIST*
%ADD10C,0.100000*%
%ADD11C,0.120000*%
%ADD12C,0.150000*%
G04 APERTURE END LIST*
D10*
D11*
X141960000Y-98345000D02*
X141960000Y-98745000D01*
X141960000Y-98745000D02*
X140560000Y-98745000D01*
X141960000Y-98345000D02*
X146760000Y-98345000D01*
X141960000Y-101545000D02*
X146760000Y-101545000D01*
X141410000Y-105610000D02*
X141410000Y-106060000D01*
X139560000Y-105610000D02*
X141410000Y-105610000D01*
X137010000Y-113410000D02*
X137260000Y-113410000D01*
X137010000Y-105610000D02*
X137260000Y-105610000D01*
X139560000Y-113410000D02*
X141410000Y-113410000D01*
X141410000Y-113410000D02*
X141410000Y-112960000D01*
X142010000Y-107410000D02*
X142310000Y-107410000D01*
X142310000Y-107410000D02*
X142310000Y-107710000D01*
X142310000Y-107710000D02*
X142010000Y-107710000D01*
X142010000Y-107710000D02*
X142010000Y-107410000D01*
X138760000Y-101695000D02*
X138760000Y-102095000D01*
X138760000Y-102095000D02*
X137360000Y-102095000D01*
X138760000Y-101695000D02*
X143560000Y-101695000D01*
X138760000Y-104895000D02*
X143560000Y-104895000D01*
X143030000Y-112500000D02*
X143030000Y-113000000D01*
X144090000Y-113000000D02*
X144090000Y-112500000D01*
X143390000Y-106410000D02*
X143390000Y-106910000D01*
X144330000Y-106910000D02*
X144330000Y-106410000D01*
D12*
X144490000Y-113120000D02*
X145260000Y-113910000D01*
X144490000Y-105410000D02*
X144490000Y-113120000D01*
X145260000Y-113910000D02*
X148830000Y-113910000D01*
X148830000Y-113910000D02*
X148830000Y-105410000D01*
X144490000Y-105410000D02*
X148830000Y-105410000D01*
X139428095Y-97082381D02*
X139428095Y-97891905D01*
X139475714Y-97987143D01*
X139523333Y-98034762D01*
X139618571Y-98082381D01*
X139809048Y-98082381D01*
X139904286Y-98034762D01*
X139951905Y-97987143D01*
X139999524Y-97891905D01*
X139999524Y-97082381D01*
X140999524Y-98082381D02*
X140428095Y-98082381D01*
X140713809Y-98082381D02*
X140713809Y-97082381D01*
X140618571Y-97225238D01*
X140523333Y-97320476D01*
X140428095Y-97368095D01*
X137398095Y-100972381D02*
X137398095Y-101781905D01*
X137445714Y-101877143D01*
X137493333Y-101924762D01*
X137588571Y-101972381D01*
X137779048Y-101972381D01*
X137874286Y-101924762D01*
X137921905Y-101877143D01*
X137969524Y-101781905D01*
X137969524Y-100972381D01*
X138398095Y-101067619D02*
X138445714Y-101020000D01*
X138540952Y-100972381D01*
X138779048Y-100972381D01*
X138874286Y-101020000D01*
X138921905Y-101067619D01*
X138969524Y-101162857D01*
X138969524Y-101258095D01*
X138921905Y-101400952D01*
X138350476Y-101972381D01*
X138969524Y-101972381D01*
X143022381Y-112926666D02*
X142546190Y-113260000D01*
X143022381Y-113498095D02*
X142022381Y-113498095D01*
X142022381Y-113117142D01*
X142070000Y-113021904D01*
X142117619Y-112974285D01*
X142212857Y-112926666D01*
X142355714Y-112926666D01*
X142450952Y-112974285D01*
X142498571Y-113021904D01*
X142546190Y-113117142D01*
X142546190Y-113498095D01*
X143022381Y-111974285D02*
X143022381Y-112545714D01*
X143022381Y-112260000D02*
X142022381Y-112260000D01*
X142165238Y-112355238D01*
X142260476Y-112450476D01*
X142308095Y-112545714D01*
X142947143Y-106826666D02*
X142994762Y-106874285D01*
X143042381Y-107017142D01*
X143042381Y-107112380D01*
X142994762Y-107255238D01*
X142899524Y-107350476D01*
X142804286Y-107398095D01*
X142613810Y-107445714D01*
X142470952Y-107445714D01*
X142280476Y-107398095D01*
X142185238Y-107350476D01*
X142090000Y-107255238D01*
X142042381Y-107112380D01*
X142042381Y-107017142D01*
X142090000Y-106874285D01*
X142137619Y-106826666D01*
X143042381Y-105874285D02*
X143042381Y-106445714D01*
X143042381Y-106160000D02*
X142042381Y-106160000D01*
X142185238Y-106255238D01*
X142280476Y-106350476D01*
X142328095Y-106445714D01*
X142947143Y-106826666D02*
X142994762Y-106874285D01*
X143042381Y-107017142D01*
X143042381Y-107112380D01*
X142994762Y-107255238D01*
X142899524Y-107350476D01*
X142804286Y-107398095D01*
X142613810Y-107445714D01*
X142470952Y-107445714D01*
X142280476Y-107398095D01*
X142185238Y-107350476D01*
X142090000Y-107255238D01*
X142042381Y-107112380D01*
X142042381Y-107017142D01*
X142090000Y-106874285D01*
X142137619Y-106826666D01*
X143042381Y-105874285D02*
X143042381Y-106445714D01*
X143042381Y-106160000D02*
X142042381Y-106160000D01*
X142185238Y-106255238D01*
X142280476Y-106350476D01*
X142328095Y-106445714D01*
X147102857Y-111611429D02*
X145902857Y-111611429D01*
X146988571Y-110354285D02*
X147045714Y-110411428D01*
X147102857Y-110582857D01*
X147102857Y-110697143D01*
X147045714Y-110868571D01*
X146931429Y-110982857D01*
X146817143Y-111040000D01*
X146588571Y-111097143D01*
X146417143Y-111097143D01*
X146188571Y-111040000D01*
X146074286Y-110982857D01*
X145960000Y-110868571D01*
X145902857Y-110697143D01*
X145902857Y-110582857D01*
X145960000Y-110411428D01*
X146017143Y-110354285D01*
X147102857Y-109211428D02*
X147102857Y-109897143D01*
X147102857Y-109554285D02*
X145902857Y-109554285D01*
X146074286Y-109668571D01*
X146188571Y-109782857D01*
X146245714Y-109897143D01*
M02*
