G04 #@! TF.FileFunction,Copper,L2,Bot,Signal*
%FSLAX46Y46*%
G04 Gerber Fmt 4.6, Leading zero omitted, Abs format (unit mm)*
G04 Created by KiCad (PCBNEW 4.0.6) date 04/21/17 09:42:09*
%MOMM*%
%LPD*%
G01*
G04 APERTURE LIST*
%ADD10C,0.100000*%
%ADD11C,0.700000*%
%ADD12C,1.450000*%
%ADD13O,1.900000X1.200000*%
%ADD14C,0.600000*%
%ADD15C,0.250000*%
%ADD16C,0.254000*%
G04 APERTURE END LIST*
D10*
D11*
X146170000Y-102420000D03*
X146160000Y-103640000D03*
X143560000Y-111260000D03*
X147585000Y-102060000D03*
D12*
X141110000Y-107010000D03*
X141110000Y-112010000D03*
D13*
X138410000Y-106010000D03*
X138410000Y-113010000D03*
D11*
X143570000Y-110240000D03*
X147580000Y-105170000D03*
D14*
X144310000Y-100110000D03*
X144310000Y-109510000D03*
X139360000Y-100585000D03*
X141880000Y-105230000D03*
X147760000Y-108610000D03*
X139210000Y-103890000D03*
D15*
X144310000Y-100110000D02*
X144310000Y-109510000D01*
X138410000Y-106010000D02*
X138410000Y-107460000D01*
D16*
G36*
X142233000Y-106282397D02*
X142063398Y-106236207D01*
X141289605Y-107010000D01*
X142063398Y-107783793D01*
X142233000Y-107737603D01*
X142233000Y-110610000D01*
X142243006Y-110659410D01*
X142271447Y-110701035D01*
X142313841Y-110728315D01*
X142360000Y-110737000D01*
X142709585Y-110737000D01*
X142710105Y-110738258D01*
X142575172Y-111063212D01*
X142574830Y-111455069D01*
X142724471Y-111817229D01*
X143001314Y-112094555D01*
X143363212Y-112244828D01*
X143755069Y-112245170D01*
X144117229Y-112095529D01*
X144394555Y-111818686D01*
X144544828Y-111456788D01*
X144545170Y-111064931D01*
X144419895Y-110761742D01*
X144430169Y-110737000D01*
X146760000Y-110737000D01*
X146809410Y-110726994D01*
X146851035Y-110698553D01*
X146878315Y-110656159D01*
X146887000Y-110610000D01*
X146887000Y-107437000D01*
X148150000Y-107437000D01*
X148150000Y-113200000D01*
X141819355Y-113200000D01*
X141883793Y-112963398D01*
X141110000Y-112189605D01*
X140336207Y-112963398D01*
X140400645Y-113200000D01*
X139869957Y-113200000D01*
X139828731Y-113137000D01*
X138537000Y-113137000D01*
X138537000Y-113157000D01*
X138283000Y-113157000D01*
X138283000Y-113137000D01*
X138263000Y-113137000D01*
X138263000Y-112883000D01*
X138283000Y-112883000D01*
X138283000Y-111775000D01*
X138537000Y-111775000D01*
X138537000Y-112883000D01*
X139828731Y-112883000D01*
X139933424Y-112723012D01*
X140156602Y-112783793D01*
X140930395Y-112010000D01*
X141289605Y-112010000D01*
X142063398Y-112783793D01*
X142301753Y-112718878D01*
X142482312Y-112208854D01*
X142453949Y-111668556D01*
X142301753Y-111301122D01*
X142063398Y-111236207D01*
X141289605Y-112010000D01*
X140930395Y-112010000D01*
X140156602Y-111236207D01*
X139918247Y-111301122D01*
X139737688Y-111811146D01*
X139763505Y-112302945D01*
X139723080Y-112226526D01*
X139349947Y-111917610D01*
X138887000Y-111775000D01*
X138537000Y-111775000D01*
X138283000Y-111775000D01*
X137933000Y-111775000D01*
X137670000Y-111856017D01*
X137670000Y-111056602D01*
X140336207Y-111056602D01*
X141110000Y-111830395D01*
X141883793Y-111056602D01*
X141818878Y-110818247D01*
X141308854Y-110637688D01*
X140768556Y-110666051D01*
X140401122Y-110818247D01*
X140336207Y-111056602D01*
X137670000Y-111056602D01*
X137670000Y-107963398D01*
X140336207Y-107963398D01*
X140401122Y-108201753D01*
X140911146Y-108382312D01*
X141451444Y-108353949D01*
X141818878Y-108201753D01*
X141883793Y-107963398D01*
X141110000Y-107189605D01*
X140336207Y-107963398D01*
X137670000Y-107963398D01*
X137670000Y-107173601D01*
X138028948Y-107245000D01*
X138791052Y-107245000D01*
X139263666Y-107150991D01*
X139664329Y-106883277D01*
X139766044Y-106731050D01*
X139737688Y-106811146D01*
X139766051Y-107351444D01*
X139918247Y-107718878D01*
X140156602Y-107783793D01*
X140930395Y-107010000D01*
X140156602Y-106236207D01*
X139971002Y-106286754D01*
X140016782Y-106056602D01*
X140336207Y-106056602D01*
X141110000Y-106830395D01*
X141883793Y-106056602D01*
X141818878Y-105818247D01*
X141308854Y-105637688D01*
X140768556Y-105666051D01*
X140401122Y-105818247D01*
X140336207Y-106056602D01*
X140016782Y-106056602D01*
X140026052Y-106010000D01*
X139932043Y-105537386D01*
X139664329Y-105136723D01*
X139263666Y-104869009D01*
X138791052Y-104775000D01*
X138028948Y-104775000D01*
X137670000Y-104846399D01*
X137670000Y-101795000D01*
X138060000Y-101795000D01*
X138331705Y-101740954D01*
X138562046Y-101587046D01*
X138715954Y-101356705D01*
X138770000Y-101085000D01*
X138770000Y-97620000D01*
X142233000Y-97620000D01*
X142233000Y-106282397D01*
X142233000Y-106282397D01*
G37*
X142233000Y-106282397D02*
X142063398Y-106236207D01*
X141289605Y-107010000D01*
X142063398Y-107783793D01*
X142233000Y-107737603D01*
X142233000Y-110610000D01*
X142243006Y-110659410D01*
X142271447Y-110701035D01*
X142313841Y-110728315D01*
X142360000Y-110737000D01*
X142709585Y-110737000D01*
X142710105Y-110738258D01*
X142575172Y-111063212D01*
X142574830Y-111455069D01*
X142724471Y-111817229D01*
X143001314Y-112094555D01*
X143363212Y-112244828D01*
X143755069Y-112245170D01*
X144117229Y-112095529D01*
X144394555Y-111818686D01*
X144544828Y-111456788D01*
X144545170Y-111064931D01*
X144419895Y-110761742D01*
X144430169Y-110737000D01*
X146760000Y-110737000D01*
X146809410Y-110726994D01*
X146851035Y-110698553D01*
X146878315Y-110656159D01*
X146887000Y-110610000D01*
X146887000Y-107437000D01*
X148150000Y-107437000D01*
X148150000Y-113200000D01*
X141819355Y-113200000D01*
X141883793Y-112963398D01*
X141110000Y-112189605D01*
X140336207Y-112963398D01*
X140400645Y-113200000D01*
X139869957Y-113200000D01*
X139828731Y-113137000D01*
X138537000Y-113137000D01*
X138537000Y-113157000D01*
X138283000Y-113157000D01*
X138283000Y-113137000D01*
X138263000Y-113137000D01*
X138263000Y-112883000D01*
X138283000Y-112883000D01*
X138283000Y-111775000D01*
X138537000Y-111775000D01*
X138537000Y-112883000D01*
X139828731Y-112883000D01*
X139933424Y-112723012D01*
X140156602Y-112783793D01*
X140930395Y-112010000D01*
X141289605Y-112010000D01*
X142063398Y-112783793D01*
X142301753Y-112718878D01*
X142482312Y-112208854D01*
X142453949Y-111668556D01*
X142301753Y-111301122D01*
X142063398Y-111236207D01*
X141289605Y-112010000D01*
X140930395Y-112010000D01*
X140156602Y-111236207D01*
X139918247Y-111301122D01*
X139737688Y-111811146D01*
X139763505Y-112302945D01*
X139723080Y-112226526D01*
X139349947Y-111917610D01*
X138887000Y-111775000D01*
X138537000Y-111775000D01*
X138283000Y-111775000D01*
X137933000Y-111775000D01*
X137670000Y-111856017D01*
X137670000Y-111056602D01*
X140336207Y-111056602D01*
X141110000Y-111830395D01*
X141883793Y-111056602D01*
X141818878Y-110818247D01*
X141308854Y-110637688D01*
X140768556Y-110666051D01*
X140401122Y-110818247D01*
X140336207Y-111056602D01*
X137670000Y-111056602D01*
X137670000Y-107963398D01*
X140336207Y-107963398D01*
X140401122Y-108201753D01*
X140911146Y-108382312D01*
X141451444Y-108353949D01*
X141818878Y-108201753D01*
X141883793Y-107963398D01*
X141110000Y-107189605D01*
X140336207Y-107963398D01*
X137670000Y-107963398D01*
X137670000Y-107173601D01*
X138028948Y-107245000D01*
X138791052Y-107245000D01*
X139263666Y-107150991D01*
X139664329Y-106883277D01*
X139766044Y-106731050D01*
X139737688Y-106811146D01*
X139766051Y-107351444D01*
X139918247Y-107718878D01*
X140156602Y-107783793D01*
X140930395Y-107010000D01*
X140156602Y-106236207D01*
X139971002Y-106286754D01*
X140016782Y-106056602D01*
X140336207Y-106056602D01*
X141110000Y-106830395D01*
X141883793Y-106056602D01*
X141818878Y-105818247D01*
X141308854Y-105637688D01*
X140768556Y-105666051D01*
X140401122Y-105818247D01*
X140336207Y-106056602D01*
X140016782Y-106056602D01*
X140026052Y-106010000D01*
X139932043Y-105537386D01*
X139664329Y-105136723D01*
X139263666Y-104869009D01*
X138791052Y-104775000D01*
X138028948Y-104775000D01*
X137670000Y-104846399D01*
X137670000Y-101795000D01*
X138060000Y-101795000D01*
X138331705Y-101740954D01*
X138562046Y-101587046D01*
X138715954Y-101356705D01*
X138770000Y-101085000D01*
X138770000Y-97620000D01*
X142233000Y-97620000D01*
X142233000Y-106282397D01*
G36*
X148150000Y-101315392D02*
X148086307Y-101379085D01*
X148067827Y-101179380D01*
X147694075Y-101061643D01*
X147303718Y-101095897D01*
X147102173Y-101179380D01*
X147083693Y-101379088D01*
X147585000Y-101880395D01*
X147599143Y-101866253D01*
X147778748Y-102045858D01*
X147764605Y-102060000D01*
X147778748Y-102074143D01*
X147599143Y-102253748D01*
X147585000Y-102239605D01*
X147570858Y-102253748D01*
X147391253Y-102074143D01*
X147405395Y-102060000D01*
X146904088Y-101558693D01*
X146707966Y-101576841D01*
X146366788Y-101435172D01*
X145974931Y-101434830D01*
X145612771Y-101584471D01*
X145335445Y-101861314D01*
X145187000Y-102218810D01*
X145187000Y-100436088D01*
X145244838Y-100296799D01*
X145245162Y-99924833D01*
X145187000Y-99784070D01*
X145187000Y-97620000D01*
X148150000Y-97620000D01*
X148150000Y-101315392D01*
X148150000Y-101315392D01*
G37*
X148150000Y-101315392D02*
X148086307Y-101379085D01*
X148067827Y-101179380D01*
X147694075Y-101061643D01*
X147303718Y-101095897D01*
X147102173Y-101179380D01*
X147083693Y-101379088D01*
X147585000Y-101880395D01*
X147599143Y-101866253D01*
X147778748Y-102045858D01*
X147764605Y-102060000D01*
X147778748Y-102074143D01*
X147599143Y-102253748D01*
X147585000Y-102239605D01*
X147570858Y-102253748D01*
X147391253Y-102074143D01*
X147405395Y-102060000D01*
X146904088Y-101558693D01*
X146707966Y-101576841D01*
X146366788Y-101435172D01*
X145974931Y-101434830D01*
X145612771Y-101584471D01*
X145335445Y-101861314D01*
X145187000Y-102218810D01*
X145187000Y-100436088D01*
X145244838Y-100296799D01*
X145245162Y-99924833D01*
X145187000Y-99784070D01*
X145187000Y-97620000D01*
X148150000Y-97620000D01*
X148150000Y-101315392D01*
M02*
