G04 #@! TF.FileFunction,Soldermask,Top*
%FSLAX46Y46*%
G04 Gerber Fmt 4.6, Leading zero omitted, Abs format (unit mm)*
G04 Created by KiCad (PCBNEW 4.0.7) date 09/05/17 21:12:23*
%MOMM*%
%LPD*%
G01*
G04 APERTURE LIST*
%ADD10C,0.100000*%
%ADD11O,1.924000X2.940000*%
%ADD12C,4.337000*%
%ADD13R,1.600000X1.600000*%
%ADD14R,1.900000X2.300000*%
%ADD15C,1.850000*%
%ADD16R,0.800000X1.750000*%
%ADD17O,1.600000X2.300000*%
%ADD18R,1.600000X2.300000*%
%ADD19R,1.700000X1.900000*%
%ADD20R,1.900000X1.700000*%
%ADD21C,2.400000*%
%ADD22R,2.000000X2.800000*%
%ADD23O,2.000000X2.800000*%
G04 APERTURE END LIST*
D10*
D11*
X212001100Y-102463600D03*
X209461100Y-102463600D03*
X189141100Y-102463600D03*
X212001100Y-54203600D03*
X209461100Y-54203600D03*
X206921100Y-54203600D03*
X204381100Y-54203600D03*
X201841100Y-54203600D03*
X199301100Y-54203600D03*
X196761100Y-54203600D03*
X194221100Y-54203600D03*
X190157100Y-54203600D03*
X187617100Y-54203600D03*
X185077100Y-54203600D03*
X182537100Y-54203600D03*
X179997100Y-54203600D03*
X177457100Y-54203600D03*
X174917100Y-54203600D03*
X172377100Y-54203600D03*
X186601100Y-102463600D03*
D12*
X214541100Y-97383600D03*
X214541100Y-69443600D03*
X163741100Y-54203600D03*
X162471100Y-102463600D03*
D13*
X226900000Y-63000000D03*
X229100000Y-63000000D03*
X157310000Y-59690000D03*
X155110000Y-59690000D03*
X226900000Y-58000000D03*
X229100000Y-58000000D03*
D14*
X154670000Y-103220000D03*
D15*
X151170000Y-100520000D03*
D16*
X153020000Y-100520000D03*
X152370000Y-100520000D03*
X154970000Y-100520000D03*
X154320000Y-100520000D03*
X153670000Y-100520000D03*
D15*
X156170000Y-100520000D03*
D14*
X152670000Y-103220000D03*
D17*
X150170000Y-103220000D03*
X157170000Y-103220000D03*
D18*
X156570000Y-103220000D03*
X150770000Y-103220000D03*
D14*
X169910000Y-103220000D03*
D15*
X166410000Y-100520000D03*
D16*
X168260000Y-100520000D03*
X167610000Y-100520000D03*
X170210000Y-100520000D03*
X169560000Y-100520000D03*
X168910000Y-100520000D03*
D15*
X171410000Y-100520000D03*
D14*
X167910000Y-103220000D03*
D17*
X165410000Y-103220000D03*
X172410000Y-103220000D03*
D18*
X171810000Y-103220000D03*
X166010000Y-103220000D03*
D14*
X181340000Y-103220000D03*
D15*
X177840000Y-100520000D03*
D16*
X179690000Y-100520000D03*
X179040000Y-100520000D03*
X181640000Y-100520000D03*
X180990000Y-100520000D03*
X180340000Y-100520000D03*
D15*
X182840000Y-100520000D03*
D14*
X179340000Y-103220000D03*
D17*
X176840000Y-103220000D03*
X183840000Y-103220000D03*
D18*
X183240000Y-103220000D03*
X177440000Y-103220000D03*
D14*
X196580000Y-103220000D03*
D15*
X193080000Y-100520000D03*
D16*
X194930000Y-100520000D03*
X194280000Y-100520000D03*
X196880000Y-100520000D03*
X196230000Y-100520000D03*
X195580000Y-100520000D03*
D15*
X198080000Y-100520000D03*
D14*
X194580000Y-103220000D03*
D17*
X192080000Y-103220000D03*
X199080000Y-103220000D03*
D18*
X198480000Y-103220000D03*
X192680000Y-103220000D03*
D14*
X220710000Y-103220000D03*
D15*
X217210000Y-100520000D03*
D16*
X219060000Y-100520000D03*
X218410000Y-100520000D03*
X221010000Y-100520000D03*
X220360000Y-100520000D03*
X219710000Y-100520000D03*
D15*
X222210000Y-100520000D03*
D14*
X218710000Y-103220000D03*
D17*
X216210000Y-103220000D03*
X223210000Y-103220000D03*
D18*
X222610000Y-103220000D03*
X216810000Y-103220000D03*
D14*
X232140000Y-103220000D03*
D15*
X228640000Y-100520000D03*
D16*
X230490000Y-100520000D03*
X229840000Y-100520000D03*
X232440000Y-100520000D03*
X231790000Y-100520000D03*
X231140000Y-100520000D03*
D15*
X233640000Y-100520000D03*
D14*
X230140000Y-103220000D03*
D17*
X227640000Y-103220000D03*
X234640000Y-103220000D03*
D18*
X234040000Y-103220000D03*
X228240000Y-103220000D03*
D14*
X243570000Y-103220000D03*
D15*
X240070000Y-100520000D03*
D16*
X241920000Y-100520000D03*
X241270000Y-100520000D03*
X243870000Y-100520000D03*
X243220000Y-100520000D03*
X242570000Y-100520000D03*
D15*
X245070000Y-100520000D03*
D14*
X241570000Y-103220000D03*
D17*
X239070000Y-103220000D03*
X246070000Y-103220000D03*
D18*
X245470000Y-103220000D03*
X239670000Y-103220000D03*
D14*
X255000000Y-103220000D03*
D15*
X251500000Y-100520000D03*
D16*
X253350000Y-100520000D03*
X252700000Y-100520000D03*
X255300000Y-100520000D03*
X254650000Y-100520000D03*
X254000000Y-100520000D03*
D15*
X256500000Y-100520000D03*
D14*
X253000000Y-103220000D03*
D17*
X250500000Y-103220000D03*
X257500000Y-103220000D03*
D18*
X256900000Y-103220000D03*
X251100000Y-103220000D03*
D19*
X209550000Y-99140000D03*
X209550000Y-96440000D03*
X205740000Y-99140000D03*
X205740000Y-96440000D03*
D20*
X220650000Y-58000000D03*
X223350000Y-58000000D03*
X220650000Y-63000000D03*
X223350000Y-63000000D03*
X161210000Y-59690000D03*
X163910000Y-59690000D03*
D21*
X204000000Y-64500000D03*
X204000000Y-60000000D03*
X210500000Y-64500000D03*
X210500000Y-60000000D03*
X188000000Y-64500000D03*
X188000000Y-60000000D03*
X194500000Y-64500000D03*
X194500000Y-60000000D03*
X173000000Y-64500000D03*
X173000000Y-60000000D03*
X179500000Y-64500000D03*
X179500000Y-60000000D03*
D22*
X218600000Y-84800000D03*
D23*
X251620000Y-77180000D03*
X221140000Y-84800000D03*
X249080000Y-77180000D03*
X223680000Y-84800000D03*
X246540000Y-77180000D03*
X226220000Y-84800000D03*
X244000000Y-77180000D03*
X228760000Y-84800000D03*
X241460000Y-77180000D03*
X231300000Y-84800000D03*
X238920000Y-77180000D03*
X233840000Y-84800000D03*
X236380000Y-77180000D03*
X236380000Y-84800000D03*
X233840000Y-77180000D03*
X238920000Y-84800000D03*
X231300000Y-77180000D03*
X241460000Y-84800000D03*
X228760000Y-77180000D03*
X244000000Y-84800000D03*
X226220000Y-77180000D03*
X246540000Y-84800000D03*
X223680000Y-77180000D03*
X249080000Y-84800000D03*
X221140000Y-77180000D03*
X251620000Y-84800000D03*
X218600000Y-77180000D03*
D22*
X206100000Y-77000000D03*
D23*
X173080000Y-84620000D03*
X203560000Y-77000000D03*
X175620000Y-84620000D03*
X201020000Y-77000000D03*
X178160000Y-84620000D03*
X198480000Y-77000000D03*
X180700000Y-84620000D03*
X195940000Y-77000000D03*
X183240000Y-84620000D03*
X193400000Y-77000000D03*
X185780000Y-84620000D03*
X190860000Y-77000000D03*
X188320000Y-84620000D03*
X188320000Y-77000000D03*
X190860000Y-84620000D03*
X185780000Y-77000000D03*
X193400000Y-84620000D03*
X183240000Y-77000000D03*
X195940000Y-84620000D03*
X180700000Y-77000000D03*
X198480000Y-84620000D03*
X178160000Y-77000000D03*
X201020000Y-84620000D03*
X175620000Y-77000000D03*
X203560000Y-84620000D03*
X173080000Y-77000000D03*
X206100000Y-84620000D03*
M02*
