G04 #@! TF.FileFunction,Soldermask,Bot*
%FSLAX46Y46*%
G04 Gerber Fmt 4.6, Leading zero omitted, Abs format (unit mm)*
G04 Created by KiCad (PCBNEW 4.0.7) date 09/05/17 21:12:23*
%MOMM*%
%LPD*%
G01*
G04 APERTURE LIST*
%ADD10C,0.100000*%
%ADD11O,1.924000X2.940000*%
%ADD12C,4.337000*%
%ADD13C,1.850000*%
%ADD14O,1.600000X2.300000*%
%ADD15C,2.400000*%
%ADD16R,2.000000X2.800000*%
%ADD17O,2.000000X2.800000*%
G04 APERTURE END LIST*
D10*
D11*
X212001100Y-102463600D03*
X209461100Y-102463600D03*
X189141100Y-102463600D03*
X212001100Y-54203600D03*
X209461100Y-54203600D03*
X206921100Y-54203600D03*
X204381100Y-54203600D03*
X201841100Y-54203600D03*
X199301100Y-54203600D03*
X196761100Y-54203600D03*
X194221100Y-54203600D03*
X190157100Y-54203600D03*
X187617100Y-54203600D03*
X185077100Y-54203600D03*
X182537100Y-54203600D03*
X179997100Y-54203600D03*
X177457100Y-54203600D03*
X174917100Y-54203600D03*
X172377100Y-54203600D03*
X186601100Y-102463600D03*
D12*
X214541100Y-97383600D03*
X214541100Y-69443600D03*
X163741100Y-54203600D03*
X162471100Y-102463600D03*
D13*
X151170000Y-100520000D03*
X156170000Y-100520000D03*
D14*
X150170000Y-103220000D03*
X157170000Y-103220000D03*
D13*
X166410000Y-100520000D03*
X171410000Y-100520000D03*
D14*
X165410000Y-103220000D03*
X172410000Y-103220000D03*
D13*
X177840000Y-100520000D03*
X182840000Y-100520000D03*
D14*
X176840000Y-103220000D03*
X183840000Y-103220000D03*
D13*
X193080000Y-100520000D03*
X198080000Y-100520000D03*
D14*
X192080000Y-103220000D03*
X199080000Y-103220000D03*
D13*
X217210000Y-100520000D03*
X222210000Y-100520000D03*
D14*
X216210000Y-103220000D03*
X223210000Y-103220000D03*
D13*
X228640000Y-100520000D03*
X233640000Y-100520000D03*
D14*
X227640000Y-103220000D03*
X234640000Y-103220000D03*
D13*
X240070000Y-100520000D03*
X245070000Y-100520000D03*
D14*
X239070000Y-103220000D03*
X246070000Y-103220000D03*
D13*
X251500000Y-100520000D03*
X256500000Y-100520000D03*
D14*
X250500000Y-103220000D03*
X257500000Y-103220000D03*
D15*
X204000000Y-64500000D03*
X204000000Y-60000000D03*
X210500000Y-64500000D03*
X210500000Y-60000000D03*
X188000000Y-64500000D03*
X188000000Y-60000000D03*
X194500000Y-64500000D03*
X194500000Y-60000000D03*
X173000000Y-64500000D03*
X173000000Y-60000000D03*
X179500000Y-64500000D03*
X179500000Y-60000000D03*
D16*
X218600000Y-84800000D03*
D17*
X251620000Y-77180000D03*
X221140000Y-84800000D03*
X249080000Y-77180000D03*
X223680000Y-84800000D03*
X246540000Y-77180000D03*
X226220000Y-84800000D03*
X244000000Y-77180000D03*
X228760000Y-84800000D03*
X241460000Y-77180000D03*
X231300000Y-84800000D03*
X238920000Y-77180000D03*
X233840000Y-84800000D03*
X236380000Y-77180000D03*
X236380000Y-84800000D03*
X233840000Y-77180000D03*
X238920000Y-84800000D03*
X231300000Y-77180000D03*
X241460000Y-84800000D03*
X228760000Y-77180000D03*
X244000000Y-84800000D03*
X226220000Y-77180000D03*
X246540000Y-84800000D03*
X223680000Y-77180000D03*
X249080000Y-84800000D03*
X221140000Y-77180000D03*
X251620000Y-84800000D03*
X218600000Y-77180000D03*
D16*
X206100000Y-77000000D03*
D17*
X173080000Y-84620000D03*
X203560000Y-77000000D03*
X175620000Y-84620000D03*
X201020000Y-77000000D03*
X178160000Y-84620000D03*
X198480000Y-77000000D03*
X180700000Y-84620000D03*
X195940000Y-77000000D03*
X183240000Y-84620000D03*
X193400000Y-77000000D03*
X185780000Y-84620000D03*
X190860000Y-77000000D03*
X188320000Y-84620000D03*
X188320000Y-77000000D03*
X190860000Y-84620000D03*
X185780000Y-77000000D03*
X193400000Y-84620000D03*
X183240000Y-77000000D03*
X195940000Y-84620000D03*
X180700000Y-77000000D03*
X198480000Y-84620000D03*
X178160000Y-77000000D03*
X201020000Y-84620000D03*
X175620000Y-77000000D03*
X203560000Y-84620000D03*
X173080000Y-77000000D03*
X206100000Y-84620000D03*
M02*
