G04 #@! TF.FileFunction,Legend,Top*
%FSLAX46Y46*%
G04 Gerber Fmt 4.6, Leading zero omitted, Abs format (unit mm)*
G04 Created by KiCad (PCBNEW 4.0.7) date 09/05/17 21:12:23*
%MOMM*%
%LPD*%
G01*
G04 APERTURE LIST*
%ADD10C,0.100000*%
%ADD11C,0.381000*%
%ADD12C,0.120000*%
%ADD13C,0.304800*%
%ADD14C,0.150000*%
G04 APERTURE END LIST*
D10*
D11*
X213626100Y-52003600D02*
X214601100Y-53003600D01*
X214601100Y-53003600D02*
X260726100Y-53003600D01*
X260726100Y-53003600D02*
X260751100Y-105003600D01*
X213676100Y-52003600D02*
X148501100Y-52003600D01*
X260701100Y-105003600D02*
X148501100Y-105003600D01*
X148501100Y-105003600D02*
X148501100Y-52003600D01*
D12*
X229800000Y-63700000D02*
X229800000Y-62300000D01*
X229800000Y-62300000D02*
X227000000Y-62300000D01*
X229800000Y-63700000D02*
X227000000Y-63700000D01*
X154410000Y-58990000D02*
X154410000Y-60390000D01*
X154410000Y-60390000D02*
X157210000Y-60390000D01*
X154410000Y-58990000D02*
X157210000Y-58990000D01*
X229800000Y-58700000D02*
X229800000Y-57300000D01*
X229800000Y-57300000D02*
X227000000Y-57300000D01*
X229800000Y-58700000D02*
X227000000Y-58700000D01*
X149770000Y-100220000D02*
X150220000Y-100220000D01*
X149770000Y-102070000D02*
X149770000Y-100220000D01*
X157570000Y-104620000D02*
X157570000Y-104370000D01*
X149770000Y-104620000D02*
X149770000Y-104370000D01*
X157570000Y-102070000D02*
X157570000Y-100220000D01*
X157570000Y-100220000D02*
X157120000Y-100220000D01*
X151970000Y-99670000D02*
X152420000Y-99670000D01*
X151970000Y-99670000D02*
X151970000Y-100120000D01*
X165010000Y-100220000D02*
X165460000Y-100220000D01*
X165010000Y-102070000D02*
X165010000Y-100220000D01*
X172810000Y-104620000D02*
X172810000Y-104370000D01*
X165010000Y-104620000D02*
X165010000Y-104370000D01*
X172810000Y-102070000D02*
X172810000Y-100220000D01*
X172810000Y-100220000D02*
X172360000Y-100220000D01*
X167210000Y-99670000D02*
X167660000Y-99670000D01*
X167210000Y-99670000D02*
X167210000Y-100120000D01*
X176440000Y-100220000D02*
X176890000Y-100220000D01*
X176440000Y-102070000D02*
X176440000Y-100220000D01*
X184240000Y-104620000D02*
X184240000Y-104370000D01*
X176440000Y-104620000D02*
X176440000Y-104370000D01*
X184240000Y-102070000D02*
X184240000Y-100220000D01*
X184240000Y-100220000D02*
X183790000Y-100220000D01*
X178640000Y-99670000D02*
X179090000Y-99670000D01*
X178640000Y-99670000D02*
X178640000Y-100120000D01*
X191680000Y-100220000D02*
X192130000Y-100220000D01*
X191680000Y-102070000D02*
X191680000Y-100220000D01*
X199480000Y-104620000D02*
X199480000Y-104370000D01*
X191680000Y-104620000D02*
X191680000Y-104370000D01*
X199480000Y-102070000D02*
X199480000Y-100220000D01*
X199480000Y-100220000D02*
X199030000Y-100220000D01*
X193880000Y-99670000D02*
X194330000Y-99670000D01*
X193880000Y-99670000D02*
X193880000Y-100120000D01*
X215810000Y-100220000D02*
X216260000Y-100220000D01*
X215810000Y-102070000D02*
X215810000Y-100220000D01*
X223610000Y-104620000D02*
X223610000Y-104370000D01*
X215810000Y-104620000D02*
X215810000Y-104370000D01*
X223610000Y-102070000D02*
X223610000Y-100220000D01*
X223610000Y-100220000D02*
X223160000Y-100220000D01*
X218010000Y-99670000D02*
X218460000Y-99670000D01*
X218010000Y-99670000D02*
X218010000Y-100120000D01*
X227240000Y-100220000D02*
X227690000Y-100220000D01*
X227240000Y-102070000D02*
X227240000Y-100220000D01*
X235040000Y-104620000D02*
X235040000Y-104370000D01*
X227240000Y-104620000D02*
X227240000Y-104370000D01*
X235040000Y-102070000D02*
X235040000Y-100220000D01*
X235040000Y-100220000D02*
X234590000Y-100220000D01*
X229440000Y-99670000D02*
X229890000Y-99670000D01*
X229440000Y-99670000D02*
X229440000Y-100120000D01*
X238670000Y-100220000D02*
X239120000Y-100220000D01*
X238670000Y-102070000D02*
X238670000Y-100220000D01*
X246470000Y-104620000D02*
X246470000Y-104370000D01*
X238670000Y-104620000D02*
X238670000Y-104370000D01*
X246470000Y-102070000D02*
X246470000Y-100220000D01*
X246470000Y-100220000D02*
X246020000Y-100220000D01*
X240870000Y-99670000D02*
X241320000Y-99670000D01*
X240870000Y-99670000D02*
X240870000Y-100120000D01*
X250100000Y-100220000D02*
X250550000Y-100220000D01*
X250100000Y-102070000D02*
X250100000Y-100220000D01*
X257900000Y-104620000D02*
X257900000Y-104370000D01*
X250100000Y-104620000D02*
X250100000Y-104370000D01*
X257900000Y-102070000D02*
X257900000Y-100220000D01*
X257900000Y-100220000D02*
X257450000Y-100220000D01*
X252300000Y-99670000D02*
X252750000Y-99670000D01*
X252300000Y-99670000D02*
X252300000Y-100120000D01*
X210430000Y-97190000D02*
X210430000Y-98390000D01*
X208670000Y-98390000D02*
X208670000Y-97190000D01*
X206620000Y-97190000D02*
X206620000Y-98390000D01*
X204860000Y-98390000D02*
X204860000Y-97190000D01*
X222600000Y-58880000D02*
X221400000Y-58880000D01*
X221400000Y-57120000D02*
X222600000Y-57120000D01*
X222600000Y-63880000D02*
X221400000Y-63880000D01*
X221400000Y-62120000D02*
X222600000Y-62120000D01*
X163160000Y-60570000D02*
X161960000Y-60570000D01*
X161960000Y-58810000D02*
X163160000Y-58810000D01*
X205000000Y-65500000D02*
X209500000Y-65500000D01*
X203750000Y-61500000D02*
X203750000Y-63000000D01*
X209500000Y-59000000D02*
X205000000Y-59000000D01*
X210750000Y-63000000D02*
X210750000Y-61500000D01*
X189000000Y-65500000D02*
X193500000Y-65500000D01*
X187750000Y-61500000D02*
X187750000Y-63000000D01*
X193500000Y-59000000D02*
X189000000Y-59000000D01*
X194750000Y-63000000D02*
X194750000Y-61500000D01*
X174000000Y-65500000D02*
X178500000Y-65500000D01*
X172750000Y-61500000D02*
X172750000Y-63000000D01*
X178500000Y-59000000D02*
X174000000Y-59000000D01*
X179750000Y-63000000D02*
X179750000Y-61500000D01*
X217210000Y-81990000D02*
X217210000Y-83360000D01*
X217210000Y-83360000D02*
X253010000Y-83360000D01*
X253010000Y-83360000D02*
X253010000Y-78620000D01*
X253010000Y-78620000D02*
X217210000Y-78620000D01*
X217210000Y-78620000D02*
X217210000Y-79990000D01*
X217210000Y-86190000D02*
X253010000Y-86190000D01*
X253010000Y-86190000D02*
X253010000Y-75790000D01*
X253010000Y-75790000D02*
X217210000Y-75790000D01*
X217210000Y-75790000D02*
X217210000Y-86190000D01*
X217210000Y-79990000D02*
G75*
G02X217210000Y-81990000I0J-1000000D01*
G01*
X207490000Y-79810000D02*
X207490000Y-78440000D01*
X207490000Y-78440000D02*
X171690000Y-78440000D01*
X171690000Y-78440000D02*
X171690000Y-83180000D01*
X171690000Y-83180000D02*
X207490000Y-83180000D01*
X207490000Y-83180000D02*
X207490000Y-81810000D01*
X207490000Y-75610000D02*
X171690000Y-75610000D01*
X171690000Y-75610000D02*
X171690000Y-86010000D01*
X171690000Y-86010000D02*
X207490000Y-86010000D01*
X207490000Y-86010000D02*
X207490000Y-75610000D01*
X207490000Y-81810000D02*
G75*
G02X207490000Y-79810000I0J1000000D01*
G01*
D13*
X151093714Y-84981143D02*
X151819429Y-84981143D01*
X150295429Y-85489143D02*
X151093714Y-84981143D01*
X150295429Y-84473143D01*
X151819429Y-83965143D02*
X150295429Y-83965143D01*
X151746857Y-82150857D02*
X151819429Y-81933143D01*
X151819429Y-81570286D01*
X151746857Y-81425143D01*
X151674286Y-81352572D01*
X151529143Y-81280000D01*
X151384000Y-81280000D01*
X151238857Y-81352572D01*
X151166286Y-81425143D01*
X151093714Y-81570286D01*
X151021143Y-81860572D01*
X150948571Y-82005714D01*
X150876000Y-82078286D01*
X150730857Y-82150857D01*
X150585714Y-82150857D01*
X150440571Y-82078286D01*
X150368000Y-82005714D01*
X150295429Y-81860572D01*
X150295429Y-81497714D01*
X150368000Y-81280000D01*
X151819429Y-80626857D02*
X150295429Y-80626857D01*
X151021143Y-80626857D02*
X151021143Y-79756000D01*
X151819429Y-79756000D02*
X150295429Y-79756000D01*
X151819429Y-79030286D02*
X150295429Y-79030286D01*
X151021143Y-78304572D02*
X151021143Y-77796572D01*
X151819429Y-77578858D02*
X151819429Y-78304572D01*
X150295429Y-78304572D01*
X150295429Y-77578858D01*
X151819429Y-76200001D02*
X151819429Y-76925715D01*
X150295429Y-76925715D01*
X151819429Y-75692001D02*
X150295429Y-75692001D01*
X150295429Y-75329144D01*
X150368000Y-75111429D01*
X150513143Y-74966287D01*
X150658286Y-74893715D01*
X150948571Y-74821144D01*
X151166286Y-74821144D01*
X151456571Y-74893715D01*
X151601714Y-74966287D01*
X151746857Y-75111429D01*
X151819429Y-75329144D01*
X151819429Y-75692001D01*
X151819429Y-73369715D02*
X151819429Y-74240572D01*
X151819429Y-73805144D02*
X150295429Y-73805144D01*
X150513143Y-73950287D01*
X150658286Y-74095429D01*
X150730857Y-74240572D01*
X150803429Y-71700572D02*
X151819429Y-71337715D01*
X150803429Y-70974857D01*
X151819429Y-69596000D02*
X151819429Y-70466857D01*
X151819429Y-70031429D02*
X150295429Y-70031429D01*
X150513143Y-70176572D01*
X150658286Y-70321714D01*
X150730857Y-70466857D01*
D14*
X227261905Y-64902381D02*
X227261905Y-63902381D01*
X227500000Y-63902381D01*
X227642858Y-63950000D01*
X227738096Y-64045238D01*
X227785715Y-64140476D01*
X227833334Y-64330952D01*
X227833334Y-64473810D01*
X227785715Y-64664286D01*
X227738096Y-64759524D01*
X227642858Y-64854762D01*
X227500000Y-64902381D01*
X227261905Y-64902381D01*
X228785715Y-64902381D02*
X228214286Y-64902381D01*
X228500000Y-64902381D02*
X228500000Y-63902381D01*
X228404762Y-64045238D01*
X228309524Y-64140476D01*
X228214286Y-64188095D01*
X224428572Y-61902381D02*
X223952381Y-61902381D01*
X223952381Y-60902381D01*
X224761905Y-61378571D02*
X225095239Y-61378571D01*
X225238096Y-61902381D02*
X224761905Y-61902381D01*
X224761905Y-60902381D01*
X225238096Y-60902381D01*
X225666667Y-61902381D02*
X225666667Y-60902381D01*
X225904762Y-60902381D01*
X226047620Y-60950000D01*
X226142858Y-61045238D01*
X226190477Y-61140476D01*
X226238096Y-61330952D01*
X226238096Y-61473810D01*
X226190477Y-61664286D01*
X226142858Y-61759524D01*
X226047620Y-61854762D01*
X225904762Y-61902381D01*
X225666667Y-61902381D01*
X226428572Y-61997619D02*
X227190477Y-61997619D01*
X227428572Y-61902381D02*
X227428572Y-60902381D01*
X227809525Y-60902381D01*
X227904763Y-60950000D01*
X227952382Y-60997619D01*
X228000001Y-61092857D01*
X228000001Y-61235714D01*
X227952382Y-61330952D01*
X227904763Y-61378571D01*
X227809525Y-61426190D01*
X227428572Y-61426190D01*
X228619048Y-60902381D02*
X228809525Y-60902381D01*
X228904763Y-60950000D01*
X229000001Y-61045238D01*
X229047620Y-61235714D01*
X229047620Y-61569048D01*
X229000001Y-61759524D01*
X228904763Y-61854762D01*
X228809525Y-61902381D01*
X228619048Y-61902381D01*
X228523810Y-61854762D01*
X228428572Y-61759524D01*
X228380953Y-61569048D01*
X228380953Y-61235714D01*
X228428572Y-61045238D01*
X228523810Y-60950000D01*
X228619048Y-60902381D01*
X229380953Y-60902381D02*
X229619048Y-61902381D01*
X229809525Y-61188095D01*
X230000001Y-61902381D01*
X230238096Y-60902381D01*
X230619048Y-61378571D02*
X230952382Y-61378571D01*
X231095239Y-61902381D02*
X230619048Y-61902381D01*
X230619048Y-60902381D01*
X231095239Y-60902381D01*
X232095239Y-61902381D02*
X231761905Y-61426190D01*
X231523810Y-61902381D02*
X231523810Y-60902381D01*
X231904763Y-60902381D01*
X232000001Y-60950000D01*
X232047620Y-60997619D01*
X232095239Y-61092857D01*
X232095239Y-61235714D01*
X232047620Y-61330952D01*
X232000001Y-61378571D01*
X231904763Y-61426190D01*
X231523810Y-61426190D01*
X155471905Y-58692381D02*
X155471905Y-57692381D01*
X155710000Y-57692381D01*
X155852858Y-57740000D01*
X155948096Y-57835238D01*
X155995715Y-57930476D01*
X156043334Y-58120952D01*
X156043334Y-58263810D01*
X155995715Y-58454286D01*
X155948096Y-58549524D01*
X155852858Y-58644762D01*
X155710000Y-58692381D01*
X155471905Y-58692381D01*
X156424286Y-57787619D02*
X156471905Y-57740000D01*
X156567143Y-57692381D01*
X156805239Y-57692381D01*
X156900477Y-57740000D01*
X156948096Y-57787619D01*
X156995715Y-57882857D01*
X156995715Y-57978095D01*
X156948096Y-58120952D01*
X156376667Y-58692381D01*
X156995715Y-58692381D01*
X153567143Y-61692381D02*
X153567143Y-60692381D01*
X154043333Y-61692381D02*
X154043333Y-60692381D01*
X154614762Y-61692381D01*
X154614762Y-60692381D01*
X154948095Y-60692381D02*
X155519524Y-60692381D01*
X155233809Y-61692381D02*
X155233809Y-60692381D01*
X155614762Y-61787619D02*
X156376667Y-61787619D01*
X157090953Y-61692381D02*
X156614762Y-61692381D01*
X156614762Y-60692381D01*
X157424286Y-61168571D02*
X157757620Y-61168571D01*
X157900477Y-61692381D02*
X157424286Y-61692381D01*
X157424286Y-60692381D01*
X157900477Y-60692381D01*
X158329048Y-61692381D02*
X158329048Y-60692381D01*
X158567143Y-60692381D01*
X158710001Y-60740000D01*
X158805239Y-60835238D01*
X158852858Y-60930476D01*
X158900477Y-61120952D01*
X158900477Y-61263810D01*
X158852858Y-61454286D01*
X158805239Y-61549524D01*
X158710001Y-61644762D01*
X158567143Y-61692381D01*
X158329048Y-61692381D01*
X227261905Y-59902381D02*
X227261905Y-58902381D01*
X227500000Y-58902381D01*
X227642858Y-58950000D01*
X227738096Y-59045238D01*
X227785715Y-59140476D01*
X227833334Y-59330952D01*
X227833334Y-59473810D01*
X227785715Y-59664286D01*
X227738096Y-59759524D01*
X227642858Y-59854762D01*
X227500000Y-59902381D01*
X227261905Y-59902381D01*
X228166667Y-58902381D02*
X228785715Y-58902381D01*
X228452381Y-59283333D01*
X228595239Y-59283333D01*
X228690477Y-59330952D01*
X228738096Y-59378571D01*
X228785715Y-59473810D01*
X228785715Y-59711905D01*
X228738096Y-59807143D01*
X228690477Y-59854762D01*
X228595239Y-59902381D01*
X228309524Y-59902381D01*
X228214286Y-59854762D01*
X228166667Y-59807143D01*
X223738095Y-56902381D02*
X223261904Y-56902381D01*
X223261904Y-55902381D01*
X224071428Y-56378571D02*
X224404762Y-56378571D01*
X224547619Y-56902381D02*
X224071428Y-56902381D01*
X224071428Y-55902381D01*
X224547619Y-55902381D01*
X224976190Y-56902381D02*
X224976190Y-55902381D01*
X225214285Y-55902381D01*
X225357143Y-55950000D01*
X225452381Y-56045238D01*
X225500000Y-56140476D01*
X225547619Y-56330952D01*
X225547619Y-56473810D01*
X225500000Y-56664286D01*
X225452381Y-56759524D01*
X225357143Y-56854762D01*
X225214285Y-56902381D01*
X224976190Y-56902381D01*
X225738095Y-56997619D02*
X226500000Y-56997619D01*
X226690476Y-56854762D02*
X226833333Y-56902381D01*
X227071429Y-56902381D01*
X227166667Y-56854762D01*
X227214286Y-56807143D01*
X227261905Y-56711905D01*
X227261905Y-56616667D01*
X227214286Y-56521429D01*
X227166667Y-56473810D01*
X227071429Y-56426190D01*
X226880952Y-56378571D01*
X226785714Y-56330952D01*
X226738095Y-56283333D01*
X226690476Y-56188095D01*
X226690476Y-56092857D01*
X226738095Y-55997619D01*
X226785714Y-55950000D01*
X226880952Y-55902381D01*
X227119048Y-55902381D01*
X227261905Y-55950000D01*
X227690476Y-56902381D02*
X227690476Y-55902381D01*
X227690476Y-56378571D02*
X228261905Y-56378571D01*
X228261905Y-56902381D02*
X228261905Y-55902381D01*
X228738095Y-55902381D02*
X228738095Y-56711905D01*
X228785714Y-56807143D01*
X228833333Y-56854762D01*
X228928571Y-56902381D01*
X229119048Y-56902381D01*
X229214286Y-56854762D01*
X229261905Y-56807143D01*
X229309524Y-56711905D01*
X229309524Y-55902381D01*
X229642857Y-55902381D02*
X230214286Y-55902381D01*
X229928571Y-56902381D02*
X229928571Y-55902381D01*
X230404762Y-55902381D02*
X230976191Y-55902381D01*
X230690476Y-56902381D02*
X230690476Y-55902381D01*
X231309524Y-56378571D02*
X231642858Y-56378571D01*
X231785715Y-56902381D02*
X231309524Y-56902381D01*
X231309524Y-55902381D01*
X231785715Y-55902381D01*
X232785715Y-56902381D02*
X232452381Y-56426190D01*
X232214286Y-56902381D02*
X232214286Y-55902381D01*
X232595239Y-55902381D01*
X232690477Y-55950000D01*
X232738096Y-55997619D01*
X232785715Y-56092857D01*
X232785715Y-56235714D01*
X232738096Y-56330952D01*
X232690477Y-56378571D01*
X232595239Y-56426190D01*
X232214286Y-56426190D01*
X153336667Y-98322381D02*
X153336667Y-99036667D01*
X153289047Y-99179524D01*
X153193809Y-99274762D01*
X153050952Y-99322381D01*
X152955714Y-99322381D01*
X154336667Y-99322381D02*
X153765238Y-99322381D01*
X154050952Y-99322381D02*
X154050952Y-98322381D01*
X153955714Y-98465238D01*
X153860476Y-98560476D01*
X153765238Y-98608095D01*
X168576667Y-98322381D02*
X168576667Y-99036667D01*
X168529047Y-99179524D01*
X168433809Y-99274762D01*
X168290952Y-99322381D01*
X168195714Y-99322381D01*
X169005238Y-98417619D02*
X169052857Y-98370000D01*
X169148095Y-98322381D01*
X169386191Y-98322381D01*
X169481429Y-98370000D01*
X169529048Y-98417619D01*
X169576667Y-98512857D01*
X169576667Y-98608095D01*
X169529048Y-98750952D01*
X168957619Y-99322381D01*
X169576667Y-99322381D01*
X180006667Y-98322381D02*
X180006667Y-99036667D01*
X179959047Y-99179524D01*
X179863809Y-99274762D01*
X179720952Y-99322381D01*
X179625714Y-99322381D01*
X180387619Y-98322381D02*
X181006667Y-98322381D01*
X180673333Y-98703333D01*
X180816191Y-98703333D01*
X180911429Y-98750952D01*
X180959048Y-98798571D01*
X181006667Y-98893810D01*
X181006667Y-99131905D01*
X180959048Y-99227143D01*
X180911429Y-99274762D01*
X180816191Y-99322381D01*
X180530476Y-99322381D01*
X180435238Y-99274762D01*
X180387619Y-99227143D01*
X195246667Y-98322381D02*
X195246667Y-99036667D01*
X195199047Y-99179524D01*
X195103809Y-99274762D01*
X194960952Y-99322381D01*
X194865714Y-99322381D01*
X196151429Y-98655714D02*
X196151429Y-99322381D01*
X195913333Y-98274762D02*
X195675238Y-98989048D01*
X196294286Y-98989048D01*
X219376667Y-98322381D02*
X219376667Y-99036667D01*
X219329047Y-99179524D01*
X219233809Y-99274762D01*
X219090952Y-99322381D01*
X218995714Y-99322381D01*
X220329048Y-98322381D02*
X219852857Y-98322381D01*
X219805238Y-98798571D01*
X219852857Y-98750952D01*
X219948095Y-98703333D01*
X220186191Y-98703333D01*
X220281429Y-98750952D01*
X220329048Y-98798571D01*
X220376667Y-98893810D01*
X220376667Y-99131905D01*
X220329048Y-99227143D01*
X220281429Y-99274762D01*
X220186191Y-99322381D01*
X219948095Y-99322381D01*
X219852857Y-99274762D01*
X219805238Y-99227143D01*
X230806667Y-98322381D02*
X230806667Y-99036667D01*
X230759047Y-99179524D01*
X230663809Y-99274762D01*
X230520952Y-99322381D01*
X230425714Y-99322381D01*
X231711429Y-98322381D02*
X231520952Y-98322381D01*
X231425714Y-98370000D01*
X231378095Y-98417619D01*
X231282857Y-98560476D01*
X231235238Y-98750952D01*
X231235238Y-99131905D01*
X231282857Y-99227143D01*
X231330476Y-99274762D01*
X231425714Y-99322381D01*
X231616191Y-99322381D01*
X231711429Y-99274762D01*
X231759048Y-99227143D01*
X231806667Y-99131905D01*
X231806667Y-98893810D01*
X231759048Y-98798571D01*
X231711429Y-98750952D01*
X231616191Y-98703333D01*
X231425714Y-98703333D01*
X231330476Y-98750952D01*
X231282857Y-98798571D01*
X231235238Y-98893810D01*
X242236667Y-98322381D02*
X242236667Y-99036667D01*
X242189047Y-99179524D01*
X242093809Y-99274762D01*
X241950952Y-99322381D01*
X241855714Y-99322381D01*
X242617619Y-98322381D02*
X243284286Y-98322381D01*
X242855714Y-99322381D01*
X253666667Y-98322381D02*
X253666667Y-99036667D01*
X253619047Y-99179524D01*
X253523809Y-99274762D01*
X253380952Y-99322381D01*
X253285714Y-99322381D01*
X254285714Y-98750952D02*
X254190476Y-98703333D01*
X254142857Y-98655714D01*
X254095238Y-98560476D01*
X254095238Y-98512857D01*
X254142857Y-98417619D01*
X254190476Y-98370000D01*
X254285714Y-98322381D01*
X254476191Y-98322381D01*
X254571429Y-98370000D01*
X254619048Y-98417619D01*
X254666667Y-98512857D01*
X254666667Y-98560476D01*
X254619048Y-98655714D01*
X254571429Y-98703333D01*
X254476191Y-98750952D01*
X254285714Y-98750952D01*
X254190476Y-98798571D01*
X254142857Y-98846190D01*
X254095238Y-98941429D01*
X254095238Y-99131905D01*
X254142857Y-99227143D01*
X254190476Y-99274762D01*
X254285714Y-99322381D01*
X254476191Y-99322381D01*
X254571429Y-99274762D01*
X254619048Y-99227143D01*
X254666667Y-99131905D01*
X254666667Y-98941429D01*
X254619048Y-98846190D01*
X254571429Y-98798571D01*
X254476191Y-98750952D01*
X208302381Y-97956666D02*
X207826190Y-98290000D01*
X208302381Y-98528095D02*
X207302381Y-98528095D01*
X207302381Y-98147142D01*
X207350000Y-98051904D01*
X207397619Y-98004285D01*
X207492857Y-97956666D01*
X207635714Y-97956666D01*
X207730952Y-98004285D01*
X207778571Y-98051904D01*
X207826190Y-98147142D01*
X207826190Y-98528095D01*
X208302381Y-97004285D02*
X208302381Y-97575714D01*
X208302381Y-97290000D02*
X207302381Y-97290000D01*
X207445238Y-97385238D01*
X207540476Y-97480476D01*
X207588095Y-97575714D01*
X204492381Y-97956666D02*
X204016190Y-98290000D01*
X204492381Y-98528095D02*
X203492381Y-98528095D01*
X203492381Y-98147142D01*
X203540000Y-98051904D01*
X203587619Y-98004285D01*
X203682857Y-97956666D01*
X203825714Y-97956666D01*
X203920952Y-98004285D01*
X203968571Y-98051904D01*
X204016190Y-98147142D01*
X204016190Y-98528095D01*
X203587619Y-97575714D02*
X203540000Y-97528095D01*
X203492381Y-97432857D01*
X203492381Y-97194761D01*
X203540000Y-97099523D01*
X203587619Y-97051904D01*
X203682857Y-97004285D01*
X203778095Y-97004285D01*
X203920952Y-97051904D01*
X204492381Y-97623333D01*
X204492381Y-97004285D01*
X221833334Y-56752381D02*
X221500000Y-56276190D01*
X221261905Y-56752381D02*
X221261905Y-55752381D01*
X221642858Y-55752381D01*
X221738096Y-55800000D01*
X221785715Y-55847619D01*
X221833334Y-55942857D01*
X221833334Y-56085714D01*
X221785715Y-56180952D01*
X221738096Y-56228571D01*
X221642858Y-56276190D01*
X221261905Y-56276190D01*
X222166667Y-55752381D02*
X222785715Y-55752381D01*
X222452381Y-56133333D01*
X222595239Y-56133333D01*
X222690477Y-56180952D01*
X222738096Y-56228571D01*
X222785715Y-56323810D01*
X222785715Y-56561905D01*
X222738096Y-56657143D01*
X222690477Y-56704762D01*
X222595239Y-56752381D01*
X222309524Y-56752381D01*
X222214286Y-56704762D01*
X222166667Y-56657143D01*
X221833334Y-61752381D02*
X221500000Y-61276190D01*
X221261905Y-61752381D02*
X221261905Y-60752381D01*
X221642858Y-60752381D01*
X221738096Y-60800000D01*
X221785715Y-60847619D01*
X221833334Y-60942857D01*
X221833334Y-61085714D01*
X221785715Y-61180952D01*
X221738096Y-61228571D01*
X221642858Y-61276190D01*
X221261905Y-61276190D01*
X222690477Y-61085714D02*
X222690477Y-61752381D01*
X222452381Y-60704762D02*
X222214286Y-61419048D01*
X222833334Y-61419048D01*
X162393334Y-58442381D02*
X162060000Y-57966190D01*
X161821905Y-58442381D02*
X161821905Y-57442381D01*
X162202858Y-57442381D01*
X162298096Y-57490000D01*
X162345715Y-57537619D01*
X162393334Y-57632857D01*
X162393334Y-57775714D01*
X162345715Y-57870952D01*
X162298096Y-57918571D01*
X162202858Y-57966190D01*
X161821905Y-57966190D01*
X163298096Y-57442381D02*
X162821905Y-57442381D01*
X162774286Y-57918571D01*
X162821905Y-57870952D01*
X162917143Y-57823333D01*
X163155239Y-57823333D01*
X163250477Y-57870952D01*
X163298096Y-57918571D01*
X163345715Y-58013810D01*
X163345715Y-58251905D01*
X163298096Y-58347143D01*
X163250477Y-58394762D01*
X163155239Y-58442381D01*
X162917143Y-58442381D01*
X162821905Y-58394762D01*
X162774286Y-58347143D01*
X205916667Y-58404762D02*
X206059524Y-58452381D01*
X206297620Y-58452381D01*
X206392858Y-58404762D01*
X206440477Y-58357143D01*
X206488096Y-58261905D01*
X206488096Y-58166667D01*
X206440477Y-58071429D01*
X206392858Y-58023810D01*
X206297620Y-57976190D01*
X206107143Y-57928571D01*
X206011905Y-57880952D01*
X205964286Y-57833333D01*
X205916667Y-57738095D01*
X205916667Y-57642857D01*
X205964286Y-57547619D01*
X206011905Y-57500000D01*
X206107143Y-57452381D01*
X206345239Y-57452381D01*
X206488096Y-57500000D01*
X206821429Y-57452381D02*
X207059524Y-58452381D01*
X207250001Y-57738095D01*
X207440477Y-58452381D01*
X207678572Y-57452381D01*
X208583334Y-58452381D02*
X208011905Y-58452381D01*
X208297619Y-58452381D02*
X208297619Y-57452381D01*
X208202381Y-57595238D01*
X208107143Y-57690476D01*
X208011905Y-57738095D01*
X205464286Y-67104762D02*
X205607143Y-67152381D01*
X205845239Y-67152381D01*
X205940477Y-67104762D01*
X205988096Y-67057143D01*
X206035715Y-66961905D01*
X206035715Y-66866667D01*
X205988096Y-66771429D01*
X205940477Y-66723810D01*
X205845239Y-66676190D01*
X205654762Y-66628571D01*
X205559524Y-66580952D01*
X205511905Y-66533333D01*
X205464286Y-66438095D01*
X205464286Y-66342857D01*
X205511905Y-66247619D01*
X205559524Y-66200000D01*
X205654762Y-66152381D01*
X205892858Y-66152381D01*
X206035715Y-66200000D01*
X206369048Y-66152381D02*
X206607143Y-67152381D01*
X206797620Y-66438095D01*
X206988096Y-67152381D01*
X207226191Y-66152381D01*
X207369048Y-67247619D02*
X208130953Y-67247619D01*
X208559524Y-66152381D02*
X208750001Y-66152381D01*
X208845239Y-66200000D01*
X208940477Y-66295238D01*
X208988096Y-66485714D01*
X208988096Y-66819048D01*
X208940477Y-67009524D01*
X208845239Y-67104762D01*
X208750001Y-67152381D01*
X208559524Y-67152381D01*
X208464286Y-67104762D01*
X208369048Y-67009524D01*
X208321429Y-66819048D01*
X208321429Y-66485714D01*
X208369048Y-66295238D01*
X208464286Y-66200000D01*
X208559524Y-66152381D01*
X209416667Y-67152381D02*
X209416667Y-66152381D01*
X209988096Y-67152381D01*
X209988096Y-66152381D01*
X189916667Y-58404762D02*
X190059524Y-58452381D01*
X190297620Y-58452381D01*
X190392858Y-58404762D01*
X190440477Y-58357143D01*
X190488096Y-58261905D01*
X190488096Y-58166667D01*
X190440477Y-58071429D01*
X190392858Y-58023810D01*
X190297620Y-57976190D01*
X190107143Y-57928571D01*
X190011905Y-57880952D01*
X189964286Y-57833333D01*
X189916667Y-57738095D01*
X189916667Y-57642857D01*
X189964286Y-57547619D01*
X190011905Y-57500000D01*
X190107143Y-57452381D01*
X190345239Y-57452381D01*
X190488096Y-57500000D01*
X190821429Y-57452381D02*
X191059524Y-58452381D01*
X191250001Y-57738095D01*
X191440477Y-58452381D01*
X191678572Y-57452381D01*
X192011905Y-57547619D02*
X192059524Y-57500000D01*
X192154762Y-57452381D01*
X192392858Y-57452381D01*
X192488096Y-57500000D01*
X192535715Y-57547619D01*
X192583334Y-57642857D01*
X192583334Y-57738095D01*
X192535715Y-57880952D01*
X191964286Y-58452381D01*
X192583334Y-58452381D01*
X189130952Y-67104762D02*
X189273809Y-67152381D01*
X189511905Y-67152381D01*
X189607143Y-67104762D01*
X189654762Y-67057143D01*
X189702381Y-66961905D01*
X189702381Y-66866667D01*
X189654762Y-66771429D01*
X189607143Y-66723810D01*
X189511905Y-66676190D01*
X189321428Y-66628571D01*
X189226190Y-66580952D01*
X189178571Y-66533333D01*
X189130952Y-66438095D01*
X189130952Y-66342857D01*
X189178571Y-66247619D01*
X189226190Y-66200000D01*
X189321428Y-66152381D01*
X189559524Y-66152381D01*
X189702381Y-66200000D01*
X190035714Y-66152381D02*
X190273809Y-67152381D01*
X190464286Y-66438095D01*
X190654762Y-67152381D01*
X190892857Y-66152381D01*
X191035714Y-67247619D02*
X191797619Y-67247619D01*
X192226190Y-66152381D02*
X192416667Y-66152381D01*
X192511905Y-66200000D01*
X192607143Y-66295238D01*
X192654762Y-66485714D01*
X192654762Y-66819048D01*
X192607143Y-67009524D01*
X192511905Y-67104762D01*
X192416667Y-67152381D01*
X192226190Y-67152381D01*
X192130952Y-67104762D01*
X192035714Y-67009524D01*
X191988095Y-66819048D01*
X191988095Y-66485714D01*
X192035714Y-66295238D01*
X192130952Y-66200000D01*
X192226190Y-66152381D01*
X193416667Y-66628571D02*
X193083333Y-66628571D01*
X193083333Y-67152381D02*
X193083333Y-66152381D01*
X193559524Y-66152381D01*
X194273810Y-66628571D02*
X193940476Y-66628571D01*
X193940476Y-67152381D02*
X193940476Y-66152381D01*
X194416667Y-66152381D01*
X174916667Y-58404762D02*
X175059524Y-58452381D01*
X175297620Y-58452381D01*
X175392858Y-58404762D01*
X175440477Y-58357143D01*
X175488096Y-58261905D01*
X175488096Y-58166667D01*
X175440477Y-58071429D01*
X175392858Y-58023810D01*
X175297620Y-57976190D01*
X175107143Y-57928571D01*
X175011905Y-57880952D01*
X174964286Y-57833333D01*
X174916667Y-57738095D01*
X174916667Y-57642857D01*
X174964286Y-57547619D01*
X175011905Y-57500000D01*
X175107143Y-57452381D01*
X175345239Y-57452381D01*
X175488096Y-57500000D01*
X175821429Y-57452381D02*
X176059524Y-58452381D01*
X176250001Y-57738095D01*
X176440477Y-58452381D01*
X176678572Y-57452381D01*
X176964286Y-57452381D02*
X177583334Y-57452381D01*
X177250000Y-57833333D01*
X177392858Y-57833333D01*
X177488096Y-57880952D01*
X177535715Y-57928571D01*
X177583334Y-58023810D01*
X177583334Y-58261905D01*
X177535715Y-58357143D01*
X177488096Y-58404762D01*
X177392858Y-58452381D01*
X177107143Y-58452381D01*
X177011905Y-58404762D01*
X176964286Y-58357143D01*
X172273809Y-67104762D02*
X172416666Y-67152381D01*
X172654762Y-67152381D01*
X172750000Y-67104762D01*
X172797619Y-67057143D01*
X172845238Y-66961905D01*
X172845238Y-66866667D01*
X172797619Y-66771429D01*
X172750000Y-66723810D01*
X172654762Y-66676190D01*
X172464285Y-66628571D01*
X172369047Y-66580952D01*
X172321428Y-66533333D01*
X172273809Y-66438095D01*
X172273809Y-66342857D01*
X172321428Y-66247619D01*
X172369047Y-66200000D01*
X172464285Y-66152381D01*
X172702381Y-66152381D01*
X172845238Y-66200000D01*
X173178571Y-66152381D02*
X173416666Y-67152381D01*
X173607143Y-66438095D01*
X173797619Y-67152381D01*
X174035714Y-66152381D01*
X174178571Y-67247619D02*
X174940476Y-67247619D01*
X175130952Y-67104762D02*
X175273809Y-67152381D01*
X175511905Y-67152381D01*
X175607143Y-67104762D01*
X175654762Y-67057143D01*
X175702381Y-66961905D01*
X175702381Y-66866667D01*
X175654762Y-66771429D01*
X175607143Y-66723810D01*
X175511905Y-66676190D01*
X175321428Y-66628571D01*
X175226190Y-66580952D01*
X175178571Y-66533333D01*
X175130952Y-66438095D01*
X175130952Y-66342857D01*
X175178571Y-66247619D01*
X175226190Y-66200000D01*
X175321428Y-66152381D01*
X175559524Y-66152381D01*
X175702381Y-66200000D01*
X176130952Y-67152381D02*
X176130952Y-66152381D01*
X176130952Y-66628571D02*
X176702381Y-66628571D01*
X176702381Y-67152381D02*
X176702381Y-66152381D01*
X177178571Y-66152381D02*
X177178571Y-66961905D01*
X177226190Y-67057143D01*
X177273809Y-67104762D01*
X177369047Y-67152381D01*
X177559524Y-67152381D01*
X177654762Y-67104762D01*
X177702381Y-67057143D01*
X177750000Y-66961905D01*
X177750000Y-66152381D01*
X178083333Y-66152381D02*
X178654762Y-66152381D01*
X178369047Y-67152381D02*
X178369047Y-66152381D01*
X178845238Y-66152381D02*
X179416667Y-66152381D01*
X179130952Y-67152381D02*
X179130952Y-66152381D01*
X179750000Y-66628571D02*
X180083334Y-66628571D01*
X180226191Y-67152381D02*
X179750000Y-67152381D01*
X179750000Y-66152381D01*
X180226191Y-66152381D01*
X181226191Y-67152381D02*
X180892857Y-66676190D01*
X180654762Y-67152381D02*
X180654762Y-66152381D01*
X181035715Y-66152381D01*
X181130953Y-66200000D01*
X181178572Y-66247619D01*
X181226191Y-66342857D01*
X181226191Y-66485714D01*
X181178572Y-66580952D01*
X181130953Y-66628571D01*
X181035715Y-66676190D01*
X180654762Y-66676190D01*
X215662381Y-81751905D02*
X216471905Y-81751905D01*
X216567143Y-81704286D01*
X216614762Y-81656667D01*
X216662381Y-81561429D01*
X216662381Y-81370952D01*
X216614762Y-81275714D01*
X216567143Y-81228095D01*
X216471905Y-81180476D01*
X215662381Y-81180476D01*
X216662381Y-80180476D02*
X216662381Y-80751905D01*
X216662381Y-80466191D02*
X215662381Y-80466191D01*
X215805238Y-80561429D01*
X215900476Y-80656667D01*
X215948095Y-80751905D01*
X207942381Y-81571905D02*
X208751905Y-81571905D01*
X208847143Y-81524286D01*
X208894762Y-81476667D01*
X208942381Y-81381429D01*
X208942381Y-81190952D01*
X208894762Y-81095714D01*
X208847143Y-81048095D01*
X208751905Y-81000476D01*
X207942381Y-81000476D01*
X208037619Y-80571905D02*
X207990000Y-80524286D01*
X207942381Y-80429048D01*
X207942381Y-80190952D01*
X207990000Y-80095714D01*
X208037619Y-80048095D01*
X208132857Y-80000476D01*
X208228095Y-80000476D01*
X208370952Y-80048095D01*
X208942381Y-80619524D01*
X208942381Y-80000476D01*
M02*
