M48
;DRILL file {KiCad 4.0.7} date 09/05/17 21:12:30
;FORMAT={-:-/ absolute / inch / decimal}
FMAT,2
INCH,TZ
T1C0.016
T2C0.024
T3C0.031
T4C0.032
T5C0.033
T6C0.043
T7C0.125
%
G90
G05
M72
T1
X5.99Y-3.89
X6.0236Y-2.3504
X6.135Y-3.86
X6.46Y-3.495
X6.55Y-3.89
X6.59Y-3.89
X6.665Y-3.515
X6.72Y-3.315
X6.72Y-3.43
X6.735Y-3.86
X6.835Y-3.12
X7.Y-3.89
X7.03Y-3.515
X7.0748Y-3.1228
X7.115Y-3.43
X7.145Y-3.225
X7.155Y-3.89
X7.2Y-3.17
X7.21Y-3.225
X7.215Y-3.54
X7.325Y-3.43
X7.3488Y-3.0949
X7.3736Y-3.1197
X7.5299Y-3.1465
X7.535Y-3.19
X7.585Y-3.15
X7.6752Y-3.4287
X7.7476Y-3.4823
X7.755Y-3.89
X7.9Y-3.925
X7.9547Y-3.6031
X8.065Y-3.44
X8.09Y-3.245
X8.105Y-3.15
X8.1724Y-3.9047
X8.31Y-3.735
X8.5996Y-3.8898
X8.725Y-3.53
X8.7646Y-3.1528
X8.825Y-3.53
X8.885Y-3.25
X9.Y-3.89
X9.0252Y-3.4217
X9.0996Y-3.5358
X9.1024Y-2.2835
X9.1024Y-2.4803
X9.125Y-3.51
X9.1618Y-3.5118
X9.2543Y-3.4039
X9.3Y-3.92
X9.3114Y-3.7803
X9.41Y-3.51
X9.44Y-3.625
X9.45Y-3.89
X9.49Y-3.565
X9.53Y-3.48
X9.55Y-3.8358
X9.555Y-3.695
X9.575Y-3.525
X9.595Y-3.695
X9.675Y-3.48
X9.75Y-3.92
X9.9Y-3.89
X10.0252Y-3.8984
T3
X6.8142Y-3.0315
X6.8142Y-3.3315
X6.9142Y-3.0315
X6.9142Y-3.3315
X7.0142Y-3.0315
X7.0142Y-3.3315
X7.1142Y-3.0315
X7.1142Y-3.3315
X7.2142Y-3.0315
X7.2142Y-3.3315
X7.3142Y-3.0315
X7.3142Y-3.3315
X7.4142Y-3.0315
X7.4142Y-3.3315
X7.5142Y-3.0315
X7.5142Y-3.3315
X7.6142Y-3.0315
X7.6142Y-3.3315
X7.7142Y-3.0315
X7.7142Y-3.3315
X7.8142Y-3.0315
X7.8142Y-3.3315
X7.9142Y-3.0315
X7.9142Y-3.3315
X8.0142Y-3.0315
X8.0142Y-3.3315
X8.1142Y-3.0315
X8.1142Y-3.3315
X8.6063Y-3.0386
X8.6063Y-3.3386
X8.7063Y-3.0386
X8.7063Y-3.3386
X8.8063Y-3.0386
X8.8063Y-3.3386
X8.9063Y-3.0386
X8.9063Y-3.3386
X9.0063Y-3.0386
X9.0063Y-3.3386
X9.1063Y-3.0386
X9.1063Y-3.3386
X9.2063Y-3.0386
X9.2063Y-3.3386
X9.3063Y-3.0386
X9.3063Y-3.3386
X9.4063Y-3.0386
X9.4063Y-3.3386
X9.5063Y-3.0386
X9.5063Y-3.3386
X9.6063Y-3.0386
X9.6063Y-3.3386
X9.7063Y-3.0386
X9.7063Y-3.3386
X9.8063Y-3.0386
X9.8063Y-3.3386
X9.9063Y-3.0386
X9.9063Y-3.3386
T4
X6.7865Y-2.134
X6.8865Y-2.134
X6.9865Y-2.134
X7.0865Y-2.134
X7.1865Y-2.134
X7.2865Y-2.134
X7.3465Y-4.034
X7.3865Y-2.134
X7.4465Y-4.034
X7.4865Y-2.134
X7.6465Y-2.134
X7.7465Y-2.134
X7.8465Y-2.134
X7.9465Y-2.134
X8.0465Y-2.134
X8.1465Y-2.134
X8.2465Y-2.134
X8.2465Y-4.034
X8.3465Y-2.134
X8.3465Y-4.034
T5
X5.9516Y-3.9575
X6.1484Y-3.9575
X6.5516Y-3.9575
X6.7484Y-3.9575
X7.0016Y-3.9575
X7.1984Y-3.9575
X7.6016Y-3.9575
X7.7984Y-3.9575
X8.5516Y-3.9575
X8.7484Y-3.9575
X9.0016Y-3.9575
X9.1984Y-3.9575
X9.4516Y-3.9575
X9.6484Y-3.9575
X9.9016Y-3.9575
X10.0984Y-3.9575
T6
X6.811Y-2.3622
X6.811Y-2.5394
X7.0669Y-2.3622
X7.0669Y-2.5394
X7.4016Y-2.3622
X7.4016Y-2.5394
X7.6575Y-2.3622
X7.6575Y-2.5394
X8.0315Y-2.3622
X8.0315Y-2.5394
X8.2874Y-2.3622
X8.2874Y-2.5394
T7
X6.3965Y-4.034
X6.4465Y-2.134
X8.4465Y-2.734
X8.4465Y-3.834
T2
X5.9122Y-4.0776G85X5.9122Y-4.05
G05
X6.1878Y-4.05G85X6.1878Y-4.0776
G05
X6.5122Y-4.0776G85X6.5122Y-4.05
G05
X6.7878Y-4.05G85X6.7878Y-4.0776
G05
X6.9622Y-4.0776G85X6.9622Y-4.05
G05
X7.2378Y-4.05G85X7.2378Y-4.0776
G05
X7.5622Y-4.0776G85X7.5622Y-4.05
G05
X7.8378Y-4.05G85X7.8378Y-4.0776
G05
X8.5122Y-4.0776G85X8.5122Y-4.05
G05
X8.7878Y-4.05G85X8.7878Y-4.0776
G05
X8.9622Y-4.0776G85X8.9622Y-4.05
G05
X9.2378Y-4.05G85X9.2378Y-4.0776
G05
X9.4122Y-4.0776G85X9.4122Y-4.05
G05
X9.6878Y-4.05G85X9.6878Y-4.0776
G05
X9.8622Y-4.0776G85X9.8622Y-4.05
G05
X10.1378Y-4.05G85X10.1378Y-4.0776
G05
T0
M30
