G04 #@! TF.FileFunction,Copper,L1,Top,Signal*
%FSLAX46Y46*%
G04 Gerber Fmt 4.6, Leading zero omitted, Abs format (unit mm)*
G04 Created by KiCad (PCBNEW 4.0.6) date 07/08/17 15:03:49*
%MOMM*%
%LPD*%
G01*
G04 APERTURE LIST*
%ADD10C,0.100000*%
%ADD11R,1.600000X1.600000*%
%ADD12O,1.600000X1.600000*%
%ADD13O,1.200000X2.000000*%
%ADD14O,1.500000X1.500000*%
%ADD15C,6.200000*%
%ADD16R,1.700000X1.700000*%
%ADD17O,1.700000X1.700000*%
%ADD18R,2.500000X2.500000*%
%ADD19C,2.500000*%
%ADD20C,2.000000*%
%ADD21C,0.600000*%
%ADD22C,0.500000*%
%ADD23C,0.250000*%
G04 APERTURE END LIST*
D10*
D11*
X191643000Y-109601000D03*
D12*
X163703000Y-124841000D03*
X189103000Y-109601000D03*
X166243000Y-124841000D03*
X186563000Y-109601000D03*
X168783000Y-124841000D03*
X184023000Y-109601000D03*
X171323000Y-124841000D03*
X181483000Y-109601000D03*
X173863000Y-124841000D03*
X178943000Y-109601000D03*
X176403000Y-124841000D03*
X176403000Y-109601000D03*
X178943000Y-124841000D03*
X173863000Y-109601000D03*
X181483000Y-124841000D03*
X171323000Y-109601000D03*
X184023000Y-124841000D03*
X168783000Y-109601000D03*
X186563000Y-124841000D03*
X166243000Y-109601000D03*
X189103000Y-124841000D03*
X163703000Y-109601000D03*
X191643000Y-124841000D03*
D13*
X109220000Y-140970000D03*
X109220000Y-118110000D03*
X106680000Y-140970000D03*
X106680000Y-118110000D03*
X104140000Y-140970000D03*
X104140000Y-118110000D03*
X101600000Y-140970000D03*
X101600000Y-118110000D03*
D14*
X124371100Y-106273600D03*
X124371100Y-103733600D03*
X126911100Y-106273600D03*
X126911100Y-103733600D03*
X129451100Y-106273600D03*
X129451100Y-103733600D03*
X131991100Y-106273600D03*
X131991100Y-103733600D03*
X134531100Y-106273600D03*
X134531100Y-103733600D03*
X137071100Y-106273600D03*
X137071100Y-103733600D03*
X139611100Y-106273600D03*
X139611100Y-103733600D03*
X142151100Y-106273600D03*
X142151100Y-103733600D03*
X144691100Y-106273600D03*
X144691100Y-103733600D03*
X147231100Y-106273600D03*
X147231100Y-103733600D03*
X149771100Y-106273600D03*
X149771100Y-103733600D03*
X152311100Y-106273600D03*
X152311100Y-103733600D03*
X154851100Y-106273600D03*
X154851100Y-103733600D03*
X157391100Y-106273600D03*
X157391100Y-103733600D03*
X159931100Y-106273600D03*
X159931100Y-103733600D03*
X162471100Y-106273600D03*
X162471100Y-103733600D03*
X165011100Y-106273600D03*
X165011100Y-103733600D03*
X167551100Y-106273600D03*
X167551100Y-103733600D03*
X170091100Y-106273600D03*
X170091100Y-103733600D03*
X172631100Y-106273600D03*
X172631100Y-103733600D03*
D15*
X177501100Y-105003600D03*
X119501100Y-105003600D03*
X119501100Y-154003600D03*
X177501100Y-154003600D03*
D16*
X143510000Y-154940000D03*
D17*
X140970000Y-154940000D03*
X138430000Y-154940000D03*
X135890000Y-154940000D03*
X133350000Y-154940000D03*
X130810000Y-154940000D03*
X128270000Y-154940000D03*
X125730000Y-154940000D03*
D18*
X83439000Y-148463000D03*
D19*
X83439000Y-153463000D03*
D18*
X83439000Y-105791000D03*
D19*
X83439000Y-110791000D03*
D20*
X196850000Y-116260000D03*
X196850000Y-111760000D03*
X203350000Y-116260000D03*
X203350000Y-111760000D03*
X196850000Y-126420000D03*
X196850000Y-121920000D03*
X203350000Y-126420000D03*
X203350000Y-121920000D03*
X102870000Y-109910000D03*
X102870000Y-105410000D03*
X109370000Y-109910000D03*
X109370000Y-105410000D03*
X197993000Y-148645000D03*
X197993000Y-144145000D03*
X204493000Y-148645000D03*
X204493000Y-144145000D03*
X188341000Y-152582000D03*
X188341000Y-148082000D03*
X194841000Y-152582000D03*
X194841000Y-148082000D03*
X188341000Y-144962000D03*
X188341000Y-140462000D03*
X194841000Y-144962000D03*
X194841000Y-140462000D03*
X178689000Y-148645000D03*
X178689000Y-144145000D03*
X185189000Y-148645000D03*
X185189000Y-144145000D03*
X102870000Y-154360000D03*
X102870000Y-149860000D03*
X109370000Y-154360000D03*
X109370000Y-149860000D03*
D14*
X153797000Y-145633000D03*
X153797000Y-153833000D03*
D11*
X158750000Y-130683000D03*
D12*
X125730000Y-138303000D03*
X156210000Y-130683000D03*
X128270000Y-138303000D03*
X153670000Y-130683000D03*
X130810000Y-138303000D03*
X151130000Y-130683000D03*
X133350000Y-138303000D03*
X148590000Y-130683000D03*
X135890000Y-138303000D03*
X146050000Y-130683000D03*
X138430000Y-138303000D03*
X143510000Y-130683000D03*
X140970000Y-138303000D03*
X140970000Y-130683000D03*
X143510000Y-138303000D03*
X138430000Y-130683000D03*
X146050000Y-138303000D03*
X135890000Y-130683000D03*
X148590000Y-138303000D03*
X133350000Y-130683000D03*
X151130000Y-138303000D03*
X130810000Y-130683000D03*
X153670000Y-138303000D03*
X128270000Y-130683000D03*
X156210000Y-138303000D03*
X125730000Y-130683000D03*
X158750000Y-138303000D03*
D21*
X164338000Y-117856000D03*
X155702000Y-117602000D03*
X140589000Y-128016000D03*
X136398000Y-110871000D03*
X149733000Y-111379000D03*
X163449000Y-129921000D03*
X135128000Y-148844000D03*
X164719000Y-129667000D03*
X165735000Y-129159000D03*
X128270000Y-151892000D03*
X166624000Y-128651000D03*
X136271000Y-150241000D03*
X168402000Y-127635000D03*
X138430000Y-152273000D03*
X167513000Y-128143000D03*
X130810000Y-151638000D03*
X192913000Y-126873000D03*
X178435000Y-135128000D03*
X139573000Y-143510000D03*
X135128000Y-143510000D03*
X122174000Y-109982000D03*
X130302000Y-112141000D03*
X142240000Y-109601000D03*
D22*
X133350000Y-138303000D02*
X133350000Y-139192000D01*
X140970000Y-146812000D02*
X140970000Y-154940000D01*
X133350000Y-139192000D02*
X140970000Y-146812000D01*
X120777000Y-118110000D02*
X124371100Y-118110000D01*
X124371100Y-118110000D02*
X124333000Y-118110000D01*
X124333000Y-118110000D02*
X124371100Y-118110000D01*
X135636000Y-133477000D02*
X133223000Y-135890000D01*
X133223000Y-135890000D02*
X133223000Y-138430000D01*
X133223000Y-138430000D02*
X133350000Y-138303000D01*
X124371100Y-106273600D02*
X124371100Y-118110000D01*
X124371100Y-118110000D02*
X124371100Y-125691900D01*
X124371100Y-125691900D02*
X122936000Y-127127000D01*
X122936000Y-127127000D02*
X122936000Y-131953000D01*
X122936000Y-131953000D02*
X124460000Y-133477000D01*
X124460000Y-133477000D02*
X135636000Y-133477000D01*
X135636000Y-133477000D02*
X138430000Y-130683000D01*
X120904000Y-118110000D02*
X120777000Y-118110000D01*
X120777000Y-118110000D02*
X109220000Y-118110000D01*
X124371100Y-103733600D02*
X124371100Y-103797100D01*
X124371100Y-103797100D02*
X125603000Y-105029000D01*
X191643000Y-121666000D02*
X191643000Y-124841000D01*
X187833000Y-117856000D02*
X191643000Y-121666000D01*
X164338000Y-117856000D02*
X187833000Y-117856000D01*
X151003000Y-112903000D02*
X155702000Y-117602000D01*
X144145000Y-112903000D02*
X151003000Y-112903000D01*
X139827000Y-108585000D02*
X144145000Y-112903000D01*
X134747000Y-108585000D02*
X139827000Y-108585000D01*
X133223000Y-107061000D02*
X134747000Y-108585000D01*
X133223000Y-105410000D02*
X133223000Y-107061000D01*
X132842000Y-105029000D02*
X133223000Y-105410000D01*
X125603000Y-105029000D02*
X132842000Y-105029000D01*
D23*
X126911100Y-106273600D02*
X126911100Y-129324100D01*
X126911100Y-129324100D02*
X128270000Y-130683000D01*
X129451100Y-129324100D02*
X130810000Y-130683000D01*
X129451100Y-106273600D02*
X129451100Y-129324100D01*
X140589000Y-128016000D02*
X136398000Y-123825000D01*
X136398000Y-123825000D02*
X136398000Y-110871000D01*
X137071100Y-103733600D02*
X137134600Y-103733600D01*
X137134600Y-103733600D02*
X138430000Y-105029000D01*
X145161000Y-111379000D02*
X149733000Y-111379000D01*
X140843000Y-107061000D02*
X145161000Y-111379000D01*
X140843000Y-105537000D02*
X140843000Y-107061000D01*
X140335000Y-105029000D02*
X140843000Y-105537000D01*
X138430000Y-105029000D02*
X140335000Y-105029000D01*
X142151100Y-106273600D02*
X142151100Y-107226100D01*
X162687000Y-129159000D02*
X163449000Y-129921000D01*
X160528000Y-129159000D02*
X162687000Y-129159000D01*
X157607000Y-126238000D02*
X160528000Y-129159000D01*
X157607000Y-117602000D02*
X157607000Y-126238000D01*
X150495000Y-110490000D02*
X157607000Y-117602000D01*
X145415000Y-110490000D02*
X150495000Y-110490000D01*
X142151100Y-107226100D02*
X145415000Y-110490000D01*
X163449000Y-128397000D02*
X164719000Y-129667000D01*
X133350000Y-154940000D02*
X133350000Y-150622000D01*
X135128000Y-148844000D02*
X133350000Y-150622000D01*
X160528000Y-128397000D02*
X163449000Y-128397000D01*
X158242000Y-126111000D02*
X160528000Y-128397000D01*
X158242000Y-117094000D02*
X158242000Y-126111000D01*
X150876000Y-109728000D02*
X158242000Y-117094000D01*
X145542000Y-109728000D02*
X150876000Y-109728000D01*
X143383000Y-107569000D02*
X145542000Y-109728000D01*
X143383000Y-105029000D02*
X143383000Y-107569000D01*
X143383000Y-105029000D02*
X142151100Y-103797100D01*
X142151100Y-103733600D02*
X142151100Y-103797100D01*
X144691100Y-103733600D02*
X144691100Y-103797100D01*
X144691100Y-103797100D02*
X145923000Y-105029000D01*
X145923000Y-105029000D02*
X145923000Y-107315000D01*
X145923000Y-107315000D02*
X147447000Y-108839000D01*
X147447000Y-108839000D02*
X151003000Y-108839000D01*
X151003000Y-108839000D02*
X159004000Y-116840000D01*
X159004000Y-116840000D02*
X159004000Y-125984000D01*
X159004000Y-125984000D02*
X160782000Y-127762000D01*
X160782000Y-127762000D02*
X164338000Y-127762000D01*
X164338000Y-127762000D02*
X165735000Y-129159000D01*
X128270000Y-151892000D02*
X128270000Y-154940000D01*
X136271000Y-150241000D02*
X135890000Y-150622000D01*
X148590000Y-108077000D02*
X151130000Y-108077000D01*
X151130000Y-108077000D02*
X159639000Y-116586000D01*
X159639000Y-116586000D02*
X159639000Y-125857000D01*
X159639000Y-125857000D02*
X161036000Y-127254000D01*
X161036000Y-127254000D02*
X165227000Y-127254000D01*
X165227000Y-127254000D02*
X166624000Y-128651000D01*
X147231100Y-106718100D02*
X148590000Y-108077000D01*
X135890000Y-150622000D02*
X135890000Y-154940000D01*
X147231100Y-106273600D02*
X147231100Y-106718100D01*
X100076756Y-114680996D02*
X100076004Y-114680996D01*
X121412000Y-114554000D02*
X100076756Y-114680996D01*
X94234000Y-148463000D02*
X83439000Y-148463000D01*
X98679000Y-144018000D02*
X94234000Y-148463000D01*
X98679000Y-116078000D02*
X98679000Y-144018000D01*
X100076004Y-114680996D02*
X98679000Y-116078000D01*
X83439000Y-148463000D02*
X84582000Y-148463000D01*
X123063000Y-112903000D02*
X121412000Y-114554000D01*
X123063000Y-107823000D02*
X123063000Y-112903000D01*
X149771100Y-103733600D02*
X148145500Y-102108000D01*
X124206000Y-102108000D02*
X148145500Y-102108000D01*
X123063000Y-103251000D02*
X124206000Y-102108000D01*
X123063000Y-107823000D02*
X123063000Y-103251000D01*
X152311100Y-106273600D02*
X151866600Y-106273600D01*
X151866600Y-106273600D02*
X161163000Y-115570000D01*
X161163000Y-115570000D02*
X161163000Y-125857000D01*
X161163000Y-125857000D02*
X161544000Y-126238000D01*
X161544000Y-126238000D02*
X167005000Y-126238000D01*
X167005000Y-126238000D02*
X168402000Y-127635000D01*
X168402000Y-127635000D02*
X168402000Y-127635000D01*
X138430000Y-152273000D02*
X138430000Y-154940000D01*
X152311100Y-103733600D02*
X152298400Y-103733600D01*
X152298400Y-103733600D02*
X151003000Y-105029000D01*
X151003000Y-105029000D02*
X151003000Y-106553000D01*
X151003000Y-106553000D02*
X160401000Y-115951000D01*
X160401000Y-115951000D02*
X160401000Y-125857000D01*
X160401000Y-125857000D02*
X161290000Y-126746000D01*
X161290000Y-126746000D02*
X166243000Y-126746000D01*
X166243000Y-126746000D02*
X167513000Y-128016000D01*
X167513000Y-128016000D02*
X167513000Y-128143000D01*
X130810000Y-151638000D02*
X130810000Y-154940000D01*
X106680000Y-140970000D02*
X106680000Y-141732000D01*
X106680000Y-141732000D02*
X108458000Y-143510000D01*
X193167000Y-111125000D02*
X191643000Y-109601000D01*
X193167000Y-126619000D02*
X193167000Y-111125000D01*
X192913000Y-126873000D02*
X193167000Y-126619000D01*
X167640000Y-135128000D02*
X178435000Y-135128000D01*
X159385000Y-143383000D02*
X167640000Y-135128000D01*
X139700000Y-143383000D02*
X159385000Y-143383000D01*
X139573000Y-143510000D02*
X139700000Y-143383000D01*
X108458000Y-143510000D02*
X135128000Y-143510000D01*
X106680000Y-140970000D02*
X107061000Y-140970000D01*
D22*
X163449000Y-125222000D02*
X163449000Y-125222000D01*
D23*
X153670000Y-130683000D02*
X152019000Y-129032000D01*
X122102000Y-109910000D02*
X109370000Y-109910000D01*
X122174000Y-109982000D02*
X122102000Y-109910000D01*
X130302000Y-127127000D02*
X130302000Y-112141000D01*
X132207000Y-129032000D02*
X130302000Y-127127000D01*
X152019000Y-129032000D02*
X132207000Y-129032000D01*
X102870000Y-109910000D02*
X92384000Y-109910000D01*
X88265000Y-105791000D02*
X83439000Y-105791000D01*
X92384000Y-109910000D02*
X88265000Y-105791000D01*
X102870000Y-109910000D02*
X101926000Y-109910000D01*
X109370000Y-109910000D02*
X102870000Y-109910000D01*
X196850000Y-116260000D02*
X203350000Y-116260000D01*
X158750000Y-130683000D02*
X190754000Y-130683000D01*
X194056000Y-119054000D02*
X196850000Y-116260000D01*
X194056000Y-127381000D02*
X194056000Y-119054000D01*
X190754000Y-130683000D02*
X194056000Y-127381000D01*
X196850000Y-126420000D02*
X203350000Y-126420000D01*
X156210000Y-130683000D02*
X157607000Y-132080000D01*
X191190000Y-132080000D02*
X196850000Y-126420000D01*
X157607000Y-132080000D02*
X191190000Y-132080000D01*
X204493000Y-148645000D02*
X197993000Y-148645000D01*
X151130000Y-130683000D02*
X153035000Y-132588000D01*
X201295000Y-145447000D02*
X204493000Y-148645000D01*
X201295000Y-137160000D02*
X201295000Y-145447000D01*
X196723000Y-132588000D02*
X201295000Y-137160000D01*
X153035000Y-132588000D02*
X196723000Y-132588000D01*
X189103000Y-133223000D02*
X192913000Y-133223000D01*
X151130000Y-133223000D02*
X189103000Y-133223000D01*
X148590000Y-130683000D02*
X151130000Y-133223000D01*
X196342000Y-151081000D02*
X194841000Y-152582000D01*
X196342000Y-136652000D02*
X196342000Y-151081000D01*
X192913000Y-133223000D02*
X196342000Y-136652000D01*
X188341000Y-152582000D02*
X194841000Y-152582000D01*
X188341000Y-144962000D02*
X194841000Y-144962000D01*
X146050000Y-130683000D02*
X149098000Y-133731000D01*
X188286000Y-144962000D02*
X188341000Y-144962000D01*
X191008000Y-142240000D02*
X188286000Y-144962000D01*
X191008000Y-136017000D02*
X191008000Y-142240000D01*
X188722000Y-133731000D02*
X191008000Y-136017000D01*
X149098000Y-133731000D02*
X188722000Y-133731000D01*
X185189000Y-148645000D02*
X178689000Y-148645000D01*
X143510000Y-130683000D02*
X147066000Y-134239000D01*
X182118000Y-145574000D02*
X185189000Y-148645000D01*
X182118000Y-137287000D02*
X182118000Y-145574000D01*
X179070000Y-134239000D02*
X182118000Y-137287000D01*
X147066000Y-134239000D02*
X179070000Y-134239000D01*
X109370000Y-154360000D02*
X102870000Y-154360000D01*
X134531100Y-103733600D02*
X134531100Y-103797100D01*
X134531100Y-103797100D02*
X135763000Y-105029000D01*
X140462000Y-107823000D02*
X142240000Y-109601000D01*
X136652000Y-107823000D02*
X140462000Y-107823000D01*
X135763000Y-106934000D02*
X136652000Y-107823000D01*
X135763000Y-105029000D02*
X135763000Y-106934000D01*
M02*
