M48
;DRILL file {KiCad 4.0.6} date 07/08/17 14:54:43
;FORMAT={-:-/ absolute / inch / decimal}
FMAT,2
INCH,TZ
T1C0.016
T2C0.031
T3C0.039
T4C0.043
T5C0.051
%
G90
G05
M72
T1
X4.81Y-4.33
X5.05Y-5.98
X5.13Y-4.415
X5.15Y-5.97
X5.32Y-5.65
X5.32Y-5.86
X5.365Y-5.915
X5.37Y-4.365
X5.45Y-5.995
X5.495Y-5.65
X5.535Y-5.04
X5.6Y-4.315
X5.895Y-4.385
X6.13Y-4.63
X6.435Y-5.115
X6.47Y-4.64
X6.485Y-5.105
X6.525Y-5.085
X6.56Y-5.065
X6.595Y-5.045
X6.63Y-5.025
X7.025Y-5.32
X7.595Y-4.995
T2
X4.Y-4.65
X4.Y-5.55
X4.1Y-4.65
X4.1Y-5.55
X4.2Y-4.65
X4.2Y-5.55
X4.3Y-4.65
X4.3Y-5.55
X4.95Y-5.145
X4.95Y-5.445
X5.05Y-5.145
X5.05Y-5.445
X5.15Y-5.145
X5.15Y-5.445
X5.25Y-5.145
X5.25Y-5.445
X5.35Y-5.145
X5.35Y-5.445
X5.45Y-5.145
X5.45Y-5.445
X5.55Y-5.145
X5.55Y-5.445
X5.65Y-5.145
X5.65Y-5.445
X5.75Y-5.145
X5.75Y-5.445
X5.85Y-5.145
X5.85Y-5.445
X5.95Y-5.145
X5.95Y-5.445
X6.05Y-5.145
X6.05Y-5.445
X6.15Y-5.145
X6.15Y-5.445
X6.25Y-5.145
X6.25Y-5.445
X6.445Y-4.315
X6.445Y-4.915
X6.545Y-4.315
X6.545Y-4.915
X6.645Y-4.315
X6.645Y-4.915
X6.745Y-4.315
X6.745Y-4.915
X6.845Y-4.315
X6.845Y-4.915
X6.945Y-4.315
X6.945Y-4.915
X7.045Y-4.315
X7.045Y-4.915
X7.145Y-4.315
X7.145Y-4.915
X7.245Y-4.315
X7.245Y-4.915
X7.345Y-4.315
X7.345Y-4.915
X7.445Y-4.315
X7.445Y-4.915
X7.545Y-4.315
X7.545Y-4.915
T3
X4.8965Y-4.084
X4.8965Y-4.184
X4.95Y-6.1
X4.9965Y-4.084
X4.9965Y-4.184
X5.05Y-6.1
X5.0965Y-4.084
X5.0965Y-4.184
X5.15Y-6.1
X5.1965Y-4.084
X5.1965Y-4.184
X5.25Y-6.1
X5.2965Y-4.084
X5.2965Y-4.184
X5.35Y-6.1
X5.3965Y-4.084
X5.3965Y-4.184
X5.45Y-6.1
X5.4965Y-4.084
X5.4965Y-4.184
X5.55Y-6.1
X5.5965Y-4.084
X5.5965Y-4.184
X5.65Y-6.1
X5.6965Y-4.084
X5.6965Y-4.184
X5.7965Y-4.084
X5.7965Y-4.184
X5.8965Y-4.084
X5.8965Y-4.184
X5.9965Y-4.084
X5.9965Y-4.184
X6.055Y-5.7336
X6.055Y-6.0564
X6.0965Y-4.084
X6.0965Y-4.184
X6.1965Y-4.084
X6.1965Y-4.184
X6.2965Y-4.084
X6.2965Y-4.184
X6.3965Y-4.084
X6.3965Y-4.184
X6.4965Y-4.084
X6.4965Y-4.184
X6.5965Y-4.084
X6.5965Y-4.184
X6.6965Y-4.084
X6.6965Y-4.184
X6.7965Y-4.084
X6.7965Y-4.184
T4
X4.05Y-4.15
X4.05Y-4.3272
X4.05Y-5.9
X4.05Y-6.0772
X4.3059Y-4.15
X4.3059Y-4.3272
X4.3059Y-5.9
X4.3059Y-6.0772
X7.035Y-5.675
X7.035Y-5.8522
X7.2909Y-5.675
X7.2909Y-5.8522
X7.415Y-5.53
X7.415Y-5.7072
X7.415Y-5.83
X7.415Y-6.0072
X7.6709Y-5.53
X7.6709Y-5.7072
X7.6709Y-5.83
X7.6709Y-6.0072
X7.75Y-4.4
X7.75Y-4.5772
X7.75Y-4.8
X7.75Y-4.9772
X7.795Y-5.675
X7.795Y-5.8522
X8.0059Y-4.4
X8.0059Y-4.5772
X8.0059Y-4.8
X8.0059Y-4.9772
X8.0509Y-5.675
X8.0509Y-5.8522
T5
X3.285Y-4.165
X3.285Y-4.3619
X3.285Y-5.845
X3.285Y-6.0419
T0
M30
