G04 #@! TF.FileFunction,Legend,Top*
%FSLAX46Y46*%
G04 Gerber Fmt 4.6, Leading zero omitted, Abs format (unit mm)*
G04 Created by KiCad (PCBNEW 4.0.6) date 07/08/17 15:03:49*
%MOMM*%
%LPD*%
G01*
G04 APERTURE LIST*
%ADD10C,0.100000*%
%ADD11C,0.300000*%
%ADD12C,0.250000*%
%ADD13C,0.150000*%
%ADD14C,0.120000*%
G04 APERTURE END LIST*
D10*
D11*
X121874286Y-121503286D02*
X121874286Y-122217571D01*
X121374286Y-120717571D02*
X121874286Y-121503286D01*
X122374286Y-120717571D01*
X122874286Y-122217571D02*
X122874286Y-121217571D01*
X122874286Y-120717571D02*
X122802857Y-120789000D01*
X122874286Y-120860429D01*
X122945714Y-120789000D01*
X122874286Y-120717571D01*
X122874286Y-120860429D01*
X125588572Y-122074714D02*
X125517143Y-122146143D01*
X125302857Y-122217571D01*
X125160000Y-122217571D01*
X124945715Y-122146143D01*
X124802857Y-122003286D01*
X124731429Y-121860429D01*
X124660000Y-121574714D01*
X124660000Y-121360429D01*
X124731429Y-121074714D01*
X124802857Y-120931857D01*
X124945715Y-120789000D01*
X125160000Y-120717571D01*
X125302857Y-120717571D01*
X125517143Y-120789000D01*
X125588572Y-120860429D01*
X126874286Y-122217571D02*
X126874286Y-121431857D01*
X126802857Y-121289000D01*
X126660000Y-121217571D01*
X126374286Y-121217571D01*
X126231429Y-121289000D01*
X126874286Y-122146143D02*
X126731429Y-122217571D01*
X126374286Y-122217571D01*
X126231429Y-122146143D01*
X126160000Y-122003286D01*
X126160000Y-121860429D01*
X126231429Y-121717571D01*
X126374286Y-121646143D01*
X126731429Y-121646143D01*
X126874286Y-121574714D01*
X127588572Y-122217571D02*
X127588572Y-121217571D01*
X127588572Y-121360429D02*
X127660000Y-121289000D01*
X127802858Y-121217571D01*
X128017143Y-121217571D01*
X128160000Y-121289000D01*
X128231429Y-121431857D01*
X128231429Y-122217571D01*
X128231429Y-121431857D02*
X128302858Y-121289000D01*
X128445715Y-121217571D01*
X128660000Y-121217571D01*
X128802858Y-121289000D01*
X128874286Y-121431857D01*
X128874286Y-122217571D01*
X130731429Y-121646143D02*
X131874286Y-121646143D01*
X134588572Y-122217571D02*
X134088572Y-121503286D01*
X133731429Y-122217571D02*
X133731429Y-120717571D01*
X134302857Y-120717571D01*
X134445715Y-120789000D01*
X134517143Y-120860429D01*
X134588572Y-121003286D01*
X134588572Y-121217571D01*
X134517143Y-121360429D01*
X134445715Y-121431857D01*
X134302857Y-121503286D01*
X133731429Y-121503286D01*
X135874286Y-122217571D02*
X135874286Y-121431857D01*
X135802857Y-121289000D01*
X135660000Y-121217571D01*
X135374286Y-121217571D01*
X135231429Y-121289000D01*
X135874286Y-122146143D02*
X135731429Y-122217571D01*
X135374286Y-122217571D01*
X135231429Y-122146143D01*
X135160000Y-122003286D01*
X135160000Y-121860429D01*
X135231429Y-121717571D01*
X135374286Y-121646143D01*
X135731429Y-121646143D01*
X135874286Y-121574714D01*
X136517143Y-122146143D02*
X136660000Y-122217571D01*
X136945715Y-122217571D01*
X137088572Y-122146143D01*
X137160000Y-122003286D01*
X137160000Y-121931857D01*
X137088572Y-121789000D01*
X136945715Y-121717571D01*
X136731429Y-121717571D01*
X136588572Y-121646143D01*
X136517143Y-121503286D01*
X136517143Y-121431857D01*
X136588572Y-121289000D01*
X136731429Y-121217571D01*
X136945715Y-121217571D01*
X137088572Y-121289000D01*
X137802858Y-121217571D02*
X137802858Y-122717571D01*
X137802858Y-121289000D02*
X137945715Y-121217571D01*
X138231429Y-121217571D01*
X138374286Y-121289000D01*
X138445715Y-121360429D01*
X138517144Y-121503286D01*
X138517144Y-121931857D01*
X138445715Y-122074714D01*
X138374286Y-122146143D01*
X138231429Y-122217571D01*
X137945715Y-122217571D01*
X137802858Y-122146143D01*
X139160001Y-122217571D02*
X139160001Y-120717571D01*
X139160001Y-121289000D02*
X139302858Y-121217571D01*
X139588572Y-121217571D01*
X139731429Y-121289000D01*
X139802858Y-121360429D01*
X139874287Y-121503286D01*
X139874287Y-121931857D01*
X139802858Y-122074714D01*
X139731429Y-122146143D01*
X139588572Y-122217571D01*
X139302858Y-122217571D01*
X139160001Y-122146143D01*
X141088572Y-122146143D02*
X140945715Y-122217571D01*
X140660001Y-122217571D01*
X140517144Y-122146143D01*
X140445715Y-122003286D01*
X140445715Y-121431857D01*
X140517144Y-121289000D01*
X140660001Y-121217571D01*
X140945715Y-121217571D01*
X141088572Y-121289000D01*
X141160001Y-121431857D01*
X141160001Y-121574714D01*
X140445715Y-121717571D01*
X141802858Y-122217571D02*
X141802858Y-121217571D01*
X141802858Y-121503286D02*
X141874286Y-121360429D01*
X141945715Y-121289000D01*
X142088572Y-121217571D01*
X142231429Y-121217571D01*
X142731429Y-122217571D02*
X142731429Y-121217571D01*
X142731429Y-121503286D02*
X142802857Y-121360429D01*
X142874286Y-121289000D01*
X143017143Y-121217571D01*
X143160000Y-121217571D01*
X143517143Y-121217571D02*
X143874286Y-122217571D01*
X144231428Y-121217571D02*
X143874286Y-122217571D01*
X143731428Y-122574714D01*
X143660000Y-122646143D01*
X143517143Y-122717571D01*
X145945714Y-122217571D02*
X145945714Y-120717571D01*
X145945714Y-121431857D02*
X146802857Y-121431857D01*
X146802857Y-122217571D02*
X146802857Y-120717571D01*
X148160000Y-122217571D02*
X148160000Y-121431857D01*
X148088571Y-121289000D01*
X147945714Y-121217571D01*
X147660000Y-121217571D01*
X147517143Y-121289000D01*
X148160000Y-122146143D02*
X148017143Y-122217571D01*
X147660000Y-122217571D01*
X147517143Y-122146143D01*
X147445714Y-122003286D01*
X147445714Y-121860429D01*
X147517143Y-121717571D01*
X147660000Y-121646143D01*
X148017143Y-121646143D01*
X148160000Y-121574714D01*
X148660000Y-121217571D02*
X149231429Y-121217571D01*
X148874286Y-120717571D02*
X148874286Y-122003286D01*
X148945714Y-122146143D01*
X149088572Y-122217571D01*
X149231429Y-122217571D01*
X150731429Y-121217571D02*
X151088572Y-122217571D01*
X151445714Y-121217571D01*
X152802857Y-122217571D02*
X151945714Y-122217571D01*
X152374286Y-122217571D02*
X152374286Y-120717571D01*
X152231429Y-120931857D01*
X152088571Y-121074714D01*
X151945714Y-121146143D01*
D12*
X77970000Y-110109096D02*
X78017619Y-110013858D01*
X78017619Y-109871001D01*
X77970000Y-109728143D01*
X77874762Y-109632905D01*
X77779524Y-109585286D01*
X77589048Y-109537667D01*
X77446190Y-109537667D01*
X77255714Y-109585286D01*
X77160476Y-109632905D01*
X77065238Y-109728143D01*
X77017619Y-109871001D01*
X77017619Y-109966239D01*
X77065238Y-110109096D01*
X77112857Y-110156715D01*
X77446190Y-110156715D01*
X77446190Y-109966239D01*
X77017619Y-110585286D02*
X78017619Y-110585286D01*
X77017619Y-111156715D01*
X78017619Y-111156715D01*
X77017619Y-111632905D02*
X78017619Y-111632905D01*
X78017619Y-111871000D01*
X77970000Y-112013858D01*
X77874762Y-112109096D01*
X77779524Y-112156715D01*
X77589048Y-112204334D01*
X77446190Y-112204334D01*
X77255714Y-112156715D01*
X77160476Y-112109096D01*
X77065238Y-112013858D01*
X77017619Y-111871000D01*
X77017619Y-111632905D01*
X77970000Y-152908096D02*
X78017619Y-152812858D01*
X78017619Y-152670001D01*
X77970000Y-152527143D01*
X77874762Y-152431905D01*
X77779524Y-152384286D01*
X77589048Y-152336667D01*
X77446190Y-152336667D01*
X77255714Y-152384286D01*
X77160476Y-152431905D01*
X77065238Y-152527143D01*
X77017619Y-152670001D01*
X77017619Y-152765239D01*
X77065238Y-152908096D01*
X77112857Y-152955715D01*
X77446190Y-152955715D01*
X77446190Y-152765239D01*
X77017619Y-153384286D02*
X78017619Y-153384286D01*
X77017619Y-153955715D01*
X78017619Y-153955715D01*
X77017619Y-154431905D02*
X78017619Y-154431905D01*
X78017619Y-154670000D01*
X77970000Y-154812858D01*
X77874762Y-154908096D01*
X77779524Y-154955715D01*
X77589048Y-155003334D01*
X77446190Y-155003334D01*
X77255714Y-154955715D01*
X77160476Y-154908096D01*
X77065238Y-154812858D01*
X77017619Y-154670000D01*
X77017619Y-154431905D01*
D13*
X153035096Y-151646000D02*
X152939858Y-151598381D01*
X152797001Y-151598381D01*
X152654143Y-151646000D01*
X152558905Y-151741238D01*
X152511286Y-151836476D01*
X152463667Y-152026952D01*
X152463667Y-152169810D01*
X152511286Y-152360286D01*
X152558905Y-152455524D01*
X152654143Y-152550762D01*
X152797001Y-152598381D01*
X152892239Y-152598381D01*
X153035096Y-152550762D01*
X153082715Y-152503143D01*
X153082715Y-152169810D01*
X152892239Y-152169810D01*
X153511286Y-152598381D02*
X153511286Y-151598381D01*
X154082715Y-152598381D01*
X154082715Y-151598381D01*
X154558905Y-152598381D02*
X154558905Y-151598381D01*
X154797000Y-151598381D01*
X154939858Y-151646000D01*
X155035096Y-151741238D01*
X155082715Y-151836476D01*
X155130334Y-152026952D01*
X155130334Y-152169810D01*
X155082715Y-152360286D01*
X155035096Y-152455524D01*
X154939858Y-152550762D01*
X154797000Y-152598381D01*
X154558905Y-152598381D01*
X163155381Y-112267905D02*
X163155381Y-111696476D01*
X164155381Y-111982191D02*
X163155381Y-111982191D01*
X163155381Y-111458381D02*
X164155381Y-110791714D01*
X163155381Y-110791714D02*
X164155381Y-111458381D01*
X191222381Y-123253333D02*
X192222381Y-122920000D01*
X191222381Y-122586666D01*
X192127143Y-121681904D02*
X192174762Y-121729523D01*
X192222381Y-121872380D01*
X192222381Y-121967618D01*
X192174762Y-122110476D01*
X192079524Y-122205714D01*
X191984286Y-122253333D01*
X191793810Y-122300952D01*
X191650952Y-122300952D01*
X191460476Y-122253333D01*
X191365238Y-122205714D01*
X191270000Y-122110476D01*
X191222381Y-121967618D01*
X191222381Y-121872380D01*
X191270000Y-121729523D01*
X191317619Y-121681904D01*
X192127143Y-120681904D02*
X192174762Y-120729523D01*
X192222381Y-120872380D01*
X192222381Y-120967618D01*
X192174762Y-121110476D01*
X192079524Y-121205714D01*
X191984286Y-121253333D01*
X191793810Y-121300952D01*
X191650952Y-121300952D01*
X191460476Y-121253333D01*
X191365238Y-121205714D01*
X191270000Y-121110476D01*
X191222381Y-120967618D01*
X191222381Y-120872380D01*
X191270000Y-120729523D01*
X191317619Y-120681904D01*
X140549381Y-153352333D02*
X141549381Y-153019000D01*
X140549381Y-152685666D01*
X141454143Y-151780904D02*
X141501762Y-151828523D01*
X141549381Y-151971380D01*
X141549381Y-152066618D01*
X141501762Y-152209476D01*
X141406524Y-152304714D01*
X141311286Y-152352333D01*
X141120810Y-152399952D01*
X140977952Y-152399952D01*
X140787476Y-152352333D01*
X140692238Y-152304714D01*
X140597000Y-152209476D01*
X140549381Y-152066618D01*
X140549381Y-151971380D01*
X140597000Y-151828523D01*
X140644619Y-151780904D01*
X141454143Y-150780904D02*
X141501762Y-150828523D01*
X141549381Y-150971380D01*
X141549381Y-151066618D01*
X141501762Y-151209476D01*
X141406524Y-151304714D01*
X141311286Y-151352333D01*
X141120810Y-151399952D01*
X140977952Y-151399952D01*
X140787476Y-151352333D01*
X140692238Y-151304714D01*
X140597000Y-151209476D01*
X140549381Y-151066618D01*
X140549381Y-150971380D01*
X140597000Y-150828523D01*
X140644619Y-150780904D01*
D11*
X132314286Y-153078571D02*
X131600000Y-153078571D01*
X131600000Y-151578571D01*
X133671429Y-152935714D02*
X133600000Y-153007143D01*
X133385714Y-153078571D01*
X133242857Y-153078571D01*
X133028572Y-153007143D01*
X132885714Y-152864286D01*
X132814286Y-152721429D01*
X132742857Y-152435714D01*
X132742857Y-152221429D01*
X132814286Y-151935714D01*
X132885714Y-151792857D01*
X133028572Y-151650000D01*
X133242857Y-151578571D01*
X133385714Y-151578571D01*
X133600000Y-151650000D01*
X133671429Y-151721429D01*
X134314286Y-153078571D02*
X134314286Y-151578571D01*
X134671429Y-151578571D01*
X134885714Y-151650000D01*
X135028572Y-151792857D01*
X135100000Y-151935714D01*
X135171429Y-152221429D01*
X135171429Y-152435714D01*
X135100000Y-152721429D01*
X135028572Y-152864286D01*
X134885714Y-153007143D01*
X134671429Y-153078571D01*
X134314286Y-153078571D01*
D13*
X82169190Y-144724381D02*
X82169190Y-143724381D01*
X82169190Y-144200571D02*
X82740619Y-144200571D01*
X82740619Y-144724381D02*
X82740619Y-143724381D01*
X83169190Y-144438667D02*
X83645381Y-144438667D01*
X83073952Y-144724381D02*
X83407285Y-143724381D01*
X83740619Y-144724381D01*
X84550143Y-144724381D02*
X84073952Y-144724381D01*
X84073952Y-143724381D01*
X85359667Y-144724381D02*
X84883476Y-144724381D01*
X84883476Y-143724381D01*
X80899381Y-115466762D02*
X81042238Y-115514381D01*
X81280334Y-115514381D01*
X81375572Y-115466762D01*
X81423191Y-115419143D01*
X81470810Y-115323905D01*
X81470810Y-115228667D01*
X81423191Y-115133429D01*
X81375572Y-115085810D01*
X81280334Y-115038190D01*
X81089857Y-114990571D01*
X80994619Y-114942952D01*
X80947000Y-114895333D01*
X80899381Y-114800095D01*
X80899381Y-114704857D01*
X80947000Y-114609619D01*
X80994619Y-114562000D01*
X81089857Y-114514381D01*
X81327953Y-114514381D01*
X81470810Y-114562000D01*
X81899381Y-115514381D02*
X81899381Y-114514381D01*
X81899381Y-114990571D02*
X82470810Y-114990571D01*
X82470810Y-115514381D02*
X82470810Y-114514381D01*
X82947000Y-114514381D02*
X82947000Y-115323905D01*
X82994619Y-115419143D01*
X83042238Y-115466762D01*
X83137476Y-115514381D01*
X83327953Y-115514381D01*
X83423191Y-115466762D01*
X83470810Y-115419143D01*
X83518429Y-115323905D01*
X83518429Y-114514381D01*
X83851762Y-114514381D02*
X84423191Y-114514381D01*
X84137476Y-115514381D02*
X84137476Y-114514381D01*
X84613667Y-114514381D02*
X85185096Y-114514381D01*
X84899381Y-115514381D02*
X84899381Y-114514381D01*
X85518429Y-114990571D02*
X85851763Y-114990571D01*
X85994620Y-115514381D02*
X85518429Y-115514381D01*
X85518429Y-114514381D01*
X85994620Y-114514381D01*
X86994620Y-115514381D02*
X86661286Y-115038190D01*
X86423191Y-115514381D02*
X86423191Y-114514381D01*
X86804144Y-114514381D01*
X86899382Y-114562000D01*
X86947001Y-114609619D01*
X86994620Y-114704857D01*
X86994620Y-114847714D01*
X86947001Y-114942952D01*
X86899382Y-114990571D01*
X86804144Y-115038190D01*
X86423191Y-115038190D01*
D11*
X150027143Y-148887571D02*
X150027143Y-147387571D01*
X150598571Y-147387571D01*
X150741429Y-147459000D01*
X150812857Y-147530429D01*
X150884286Y-147673286D01*
X150884286Y-147887571D01*
X150812857Y-148030429D01*
X150741429Y-148101857D01*
X150598571Y-148173286D01*
X150027143Y-148173286D01*
X151527143Y-148887571D02*
X151527143Y-147387571D01*
X152241429Y-148101857D02*
X152741429Y-148101857D01*
X152955715Y-148887571D02*
X152241429Y-148887571D01*
X152241429Y-147387571D01*
X152955715Y-147387571D01*
X153455715Y-147387571D02*
X154455715Y-147387571D01*
X153455715Y-148887571D01*
X154455715Y-148887571D01*
X154884286Y-147387571D02*
X155884286Y-147387571D01*
X154884286Y-148887571D01*
X155884286Y-148887571D01*
X156741428Y-147387571D02*
X157027142Y-147387571D01*
X157170000Y-147459000D01*
X157312857Y-147601857D01*
X157384285Y-147887571D01*
X157384285Y-148387571D01*
X157312857Y-148673286D01*
X157170000Y-148816143D01*
X157027142Y-148887571D01*
X156741428Y-148887571D01*
X156598571Y-148816143D01*
X156455714Y-148673286D01*
X156384285Y-148387571D01*
X156384285Y-147887571D01*
X156455714Y-147601857D01*
X156598571Y-147459000D01*
X156741428Y-147387571D01*
X85257999Y-129051857D02*
X85472285Y-129123286D01*
X85543713Y-129194714D01*
X85615142Y-129337571D01*
X85615142Y-129551857D01*
X85543713Y-129694714D01*
X85472285Y-129766143D01*
X85329427Y-129837571D01*
X84757999Y-129837571D01*
X84757999Y-128337571D01*
X85257999Y-128337571D01*
X85400856Y-128409000D01*
X85472285Y-128480429D01*
X85543713Y-128623286D01*
X85543713Y-128766143D01*
X85472285Y-128909000D01*
X85400856Y-128980429D01*
X85257999Y-129051857D01*
X84757999Y-129051857D01*
X86972285Y-129837571D02*
X86257999Y-129837571D01*
X86257999Y-128337571D01*
X87472285Y-128337571D02*
X87472285Y-129551857D01*
X87543713Y-129694714D01*
X87615142Y-129766143D01*
X87757999Y-129837571D01*
X88043713Y-129837571D01*
X88186571Y-129766143D01*
X88257999Y-129694714D01*
X88329428Y-129551857D01*
X88329428Y-128337571D01*
X89043714Y-129051857D02*
X89543714Y-129051857D01*
X89758000Y-129837571D02*
X89043714Y-129837571D01*
X89043714Y-128337571D01*
X89758000Y-128337571D01*
X90186571Y-128337571D02*
X91043714Y-128337571D01*
X90615143Y-129837571D02*
X90615143Y-128337571D01*
X91829428Y-128337571D02*
X92115142Y-128337571D01*
X92258000Y-128409000D01*
X92400857Y-128551857D01*
X92472285Y-128837571D01*
X92472285Y-129337571D01*
X92400857Y-129623286D01*
X92258000Y-129766143D01*
X92115142Y-129837571D01*
X91829428Y-129837571D01*
X91686571Y-129766143D01*
X91543714Y-129623286D01*
X91472285Y-129337571D01*
X91472285Y-128837571D01*
X91543714Y-128551857D01*
X91686571Y-128409000D01*
X91829428Y-128337571D01*
X93400857Y-128337571D02*
X93686571Y-128337571D01*
X93829429Y-128409000D01*
X93972286Y-128551857D01*
X94043714Y-128837571D01*
X94043714Y-129337571D01*
X93972286Y-129623286D01*
X93829429Y-129766143D01*
X93686571Y-129837571D01*
X93400857Y-129837571D01*
X93258000Y-129766143D01*
X93115143Y-129623286D01*
X93043714Y-129337571D01*
X93043714Y-128837571D01*
X93115143Y-128551857D01*
X93258000Y-128409000D01*
X93400857Y-128337571D01*
X94472286Y-128337571D02*
X95329429Y-128337571D01*
X94900858Y-129837571D02*
X94900858Y-128337571D01*
X95829429Y-129837571D02*
X95829429Y-128337571D01*
X95829429Y-129051857D02*
X96686572Y-129051857D01*
X96686572Y-129837571D02*
X96686572Y-128337571D01*
X98543715Y-129837571D02*
X98543715Y-128337571D01*
X99043715Y-129409000D01*
X99543715Y-128337571D01*
X99543715Y-129837571D01*
X100543715Y-128337571D02*
X100829429Y-128337571D01*
X100972287Y-128409000D01*
X101115144Y-128551857D01*
X101186572Y-128837571D01*
X101186572Y-129337571D01*
X101115144Y-129623286D01*
X100972287Y-129766143D01*
X100829429Y-129837571D01*
X100543715Y-129837571D01*
X100400858Y-129766143D01*
X100258001Y-129623286D01*
X100186572Y-129337571D01*
X100186572Y-128837571D01*
X100258001Y-128551857D01*
X100400858Y-128409000D01*
X100543715Y-128337571D01*
X101829430Y-129837571D02*
X101829430Y-128337571D01*
X102186573Y-128337571D01*
X102400858Y-128409000D01*
X102543716Y-128551857D01*
X102615144Y-128694714D01*
X102686573Y-128980429D01*
X102686573Y-129194714D01*
X102615144Y-129480429D01*
X102543716Y-129623286D01*
X102400858Y-129766143D01*
X102186573Y-129837571D01*
X101829430Y-129837571D01*
X103329430Y-128337571D02*
X103329430Y-129551857D01*
X103400858Y-129694714D01*
X103472287Y-129766143D01*
X103615144Y-129837571D01*
X103900858Y-129837571D01*
X104043716Y-129766143D01*
X104115144Y-129694714D01*
X104186573Y-129551857D01*
X104186573Y-128337571D01*
X105615145Y-129837571D02*
X104900859Y-129837571D01*
X104900859Y-128337571D01*
X106115145Y-129051857D02*
X106615145Y-129051857D01*
X106829431Y-129837571D02*
X106115145Y-129837571D01*
X106115145Y-128337571D01*
X106829431Y-128337571D01*
X175907572Y-116375571D02*
X175907572Y-114875571D01*
X176764715Y-116375571D01*
X176764715Y-114875571D01*
X177407572Y-115947000D02*
X178121858Y-115947000D01*
X177264715Y-116375571D02*
X177764715Y-114875571D01*
X178264715Y-116375571D01*
X178550429Y-114875571D02*
X179050429Y-116375571D01*
X179550429Y-114875571D01*
X179979000Y-116304143D02*
X180193286Y-116375571D01*
X180550429Y-116375571D01*
X180693286Y-116304143D01*
X180764715Y-116232714D01*
X180836143Y-116089857D01*
X180836143Y-115947000D01*
X180764715Y-115804143D01*
X180693286Y-115732714D01*
X180550429Y-115661286D01*
X180264715Y-115589857D01*
X180121857Y-115518429D01*
X180050429Y-115447000D01*
X179979000Y-115304143D01*
X179979000Y-115161286D01*
X180050429Y-115018429D01*
X180121857Y-114947000D01*
X180264715Y-114875571D01*
X180621857Y-114875571D01*
X180836143Y-114947000D01*
X181479000Y-116375571D02*
X181479000Y-114875571D01*
X182050428Y-114875571D01*
X182193286Y-114947000D01*
X182264714Y-115018429D01*
X182336143Y-115161286D01*
X182336143Y-115375571D01*
X182264714Y-115518429D01*
X182193286Y-115589857D01*
X182050428Y-115661286D01*
X181479000Y-115661286D01*
X182907571Y-115947000D02*
X183621857Y-115947000D01*
X182764714Y-116375571D02*
X183264714Y-114875571D01*
X183764714Y-116375571D01*
X185121857Y-116375571D02*
X184621857Y-115661286D01*
X184264714Y-116375571D02*
X184264714Y-114875571D01*
X184836142Y-114875571D01*
X184979000Y-114947000D01*
X185050428Y-115018429D01*
X185121857Y-115161286D01*
X185121857Y-115375571D01*
X185050428Y-115518429D01*
X184979000Y-115589857D01*
X184836142Y-115661286D01*
X184264714Y-115661286D01*
X185764714Y-116375571D02*
X185764714Y-114875571D01*
X186621857Y-116375571D02*
X185979000Y-115518429D01*
X186621857Y-114875571D02*
X185764714Y-115732714D01*
D14*
X193033000Y-116221000D02*
X193033000Y-110641000D01*
X193033000Y-110641000D02*
X162313000Y-110641000D01*
X162313000Y-110641000D02*
X162313000Y-123801000D01*
X162313000Y-123801000D02*
X193033000Y-123801000D01*
X193033000Y-123801000D02*
X193033000Y-118221000D01*
X193033000Y-118221000D02*
G75*
G02X193033000Y-116221000I0J1000000D01*
G01*
D13*
X110320000Y-116610000D02*
X76500000Y-116610000D01*
X76500000Y-116610000D02*
X76500000Y-142470000D01*
X76500000Y-142470000D02*
X110319999Y-142470000D01*
X110319999Y-142470000D02*
X110320000Y-133850000D01*
X110320000Y-133850000D02*
X109870000Y-133850000D01*
X109870000Y-133850000D02*
X109870000Y-125230000D01*
X109870000Y-125230000D02*
X110320000Y-125230000D01*
X110320000Y-125230000D02*
X110320000Y-116610000D01*
D14*
X142240000Y-153610000D02*
X124400000Y-153610000D01*
X124400000Y-153610000D02*
X124400000Y-156270000D01*
X124400000Y-156270000D02*
X142240000Y-156270000D01*
X142240000Y-156270000D02*
X142240000Y-153610000D01*
X143510000Y-153610000D02*
X144840000Y-153610000D01*
X144840000Y-153610000D02*
X144840000Y-154940000D01*
D13*
X79339000Y-150963000D02*
X78839000Y-150963000D01*
X85339000Y-153463000D02*
G75*
G03X85339000Y-153463000I-2000000J0D01*
G01*
X85339000Y-148463000D02*
G75*
G03X85339000Y-148463000I-2000000J0D01*
G01*
X80839000Y-145963000D02*
X80839000Y-155963000D01*
X85739000Y-145963000D02*
X85739000Y-155963000D01*
X79339000Y-145963000D02*
X79339000Y-155963000D01*
X78839000Y-145963000D02*
X78839000Y-155963000D01*
X78839000Y-155963000D02*
X88639000Y-155963000D01*
X88639000Y-155963000D02*
X88639000Y-145963000D01*
X88639000Y-145963000D02*
X78839000Y-145963000D01*
X79339000Y-108291000D02*
X78839000Y-108291000D01*
X85339000Y-110791000D02*
G75*
G03X85339000Y-110791000I-2000000J0D01*
G01*
X85339000Y-105791000D02*
G75*
G03X85339000Y-105791000I-2000000J0D01*
G01*
X80839000Y-103291000D02*
X80839000Y-113291000D01*
X85739000Y-103291000D02*
X85739000Y-113291000D01*
X79339000Y-103291000D02*
X79339000Y-113291000D01*
X78839000Y-103291000D02*
X78839000Y-113291000D01*
X78839000Y-113291000D02*
X88639000Y-113291000D01*
X88639000Y-113291000D02*
X88639000Y-103291000D01*
X88639000Y-103291000D02*
X78839000Y-103291000D01*
D14*
X197850000Y-117260000D02*
X202350000Y-117260000D01*
X196600000Y-113260000D02*
X196600000Y-114760000D01*
X202350000Y-110760000D02*
X197850000Y-110760000D01*
X203600000Y-114760000D02*
X203600000Y-113260000D01*
X197850000Y-127420000D02*
X202350000Y-127420000D01*
X196600000Y-123420000D02*
X196600000Y-124920000D01*
X202350000Y-120920000D02*
X197850000Y-120920000D01*
X203600000Y-124920000D02*
X203600000Y-123420000D01*
X103870000Y-110910000D02*
X108370000Y-110910000D01*
X102620000Y-106910000D02*
X102620000Y-108410000D01*
X108370000Y-104410000D02*
X103870000Y-104410000D01*
X109620000Y-108410000D02*
X109620000Y-106910000D01*
X198993000Y-149645000D02*
X203493000Y-149645000D01*
X197743000Y-145645000D02*
X197743000Y-147145000D01*
X203493000Y-143145000D02*
X198993000Y-143145000D01*
X204743000Y-147145000D02*
X204743000Y-145645000D01*
X189341000Y-153582000D02*
X193841000Y-153582000D01*
X188091000Y-149582000D02*
X188091000Y-151082000D01*
X193841000Y-147082000D02*
X189341000Y-147082000D01*
X195091000Y-151082000D02*
X195091000Y-149582000D01*
X189341000Y-145962000D02*
X193841000Y-145962000D01*
X188091000Y-141962000D02*
X188091000Y-143462000D01*
X193841000Y-139462000D02*
X189341000Y-139462000D01*
X195091000Y-143462000D02*
X195091000Y-141962000D01*
X179689000Y-149645000D02*
X184189000Y-149645000D01*
X178439000Y-145645000D02*
X178439000Y-147145000D01*
X184189000Y-143145000D02*
X179689000Y-143145000D01*
X185439000Y-147145000D02*
X185439000Y-145645000D01*
X103870000Y-155360000D02*
X108370000Y-155360000D01*
X102620000Y-151360000D02*
X102620000Y-152860000D01*
X108370000Y-148860000D02*
X103870000Y-148860000D01*
X109620000Y-152860000D02*
X109620000Y-151360000D01*
D13*
X158797000Y-149733000D02*
G75*
G03X158797000Y-149733000I-5000000J0D01*
G01*
D14*
X160140000Y-133493000D02*
X160140000Y-131723000D01*
X160140000Y-131723000D02*
X124340000Y-131723000D01*
X124340000Y-131723000D02*
X124340000Y-137263000D01*
X124340000Y-137263000D02*
X160140000Y-137263000D01*
X160140000Y-137263000D02*
X160140000Y-135493000D01*
X160140000Y-135493000D02*
G75*
G02X160140000Y-133493000I0J1000000D01*
G01*
D13*
X193485381Y-117554333D02*
X194199667Y-117554333D01*
X194342524Y-117601953D01*
X194437762Y-117697191D01*
X194485381Y-117840048D01*
X194485381Y-117935286D01*
X193485381Y-117173381D02*
X193485381Y-116554333D01*
X193866333Y-116887667D01*
X193866333Y-116744809D01*
X193913952Y-116649571D01*
X193961571Y-116601952D01*
X194056810Y-116554333D01*
X194294905Y-116554333D01*
X194390143Y-116601952D01*
X194437762Y-116649571D01*
X194485381Y-116744809D01*
X194485381Y-117030524D01*
X194437762Y-117125762D01*
X194390143Y-117173381D01*
X110862857Y-129940000D02*
X111720000Y-129940000D01*
X111891429Y-129997142D01*
X112005714Y-130111428D01*
X112062857Y-130282857D01*
X112062857Y-130397142D01*
X110977143Y-129425714D02*
X110920000Y-129368571D01*
X110862857Y-129254285D01*
X110862857Y-128968571D01*
X110920000Y-128854285D01*
X110977143Y-128797142D01*
X111091429Y-128739999D01*
X111205714Y-128739999D01*
X111377143Y-128797142D01*
X112062857Y-129482856D01*
X112062857Y-128739999D01*
X145292381Y-155273333D02*
X146006667Y-155273333D01*
X146149524Y-155320953D01*
X146244762Y-155416191D01*
X146292381Y-155559048D01*
X146292381Y-155654286D01*
X145625714Y-154368571D02*
X146292381Y-154368571D01*
X145244762Y-154606667D02*
X145959048Y-154844762D01*
X145959048Y-154225714D01*
X76991381Y-151296333D02*
X77705667Y-151296333D01*
X77848524Y-151343953D01*
X77943762Y-151439191D01*
X77991381Y-151582048D01*
X77991381Y-151677286D01*
X76991381Y-150343952D02*
X76991381Y-150820143D01*
X77467571Y-150867762D01*
X77419952Y-150820143D01*
X77372333Y-150724905D01*
X77372333Y-150486809D01*
X77419952Y-150391571D01*
X77467571Y-150343952D01*
X77562810Y-150296333D01*
X77800905Y-150296333D01*
X77896143Y-150343952D01*
X77943762Y-150391571D01*
X77991381Y-150486809D01*
X77991381Y-150724905D01*
X77943762Y-150820143D01*
X77896143Y-150867762D01*
X76991381Y-108624333D02*
X77705667Y-108624333D01*
X77848524Y-108671953D01*
X77943762Y-108767191D01*
X77991381Y-108910048D01*
X77991381Y-109005286D01*
X76991381Y-107719571D02*
X76991381Y-107910048D01*
X77039000Y-108005286D01*
X77086619Y-108052905D01*
X77229476Y-108148143D01*
X77419952Y-108195762D01*
X77800905Y-108195762D01*
X77896143Y-108148143D01*
X77943762Y-108100524D01*
X77991381Y-108005286D01*
X77991381Y-107814809D01*
X77943762Y-107719571D01*
X77896143Y-107671952D01*
X77800905Y-107624333D01*
X77562810Y-107624333D01*
X77467571Y-107671952D01*
X77419952Y-107719571D01*
X77372333Y-107814809D01*
X77372333Y-108005286D01*
X77419952Y-108100524D01*
X77467571Y-108148143D01*
X77562810Y-108195762D01*
X197338095Y-110164762D02*
X197480952Y-110212381D01*
X197719048Y-110212381D01*
X197814286Y-110164762D01*
X197861905Y-110117143D01*
X197909524Y-110021905D01*
X197909524Y-109926667D01*
X197861905Y-109831429D01*
X197814286Y-109783810D01*
X197719048Y-109736190D01*
X197528571Y-109688571D01*
X197433333Y-109640952D01*
X197385714Y-109593333D01*
X197338095Y-109498095D01*
X197338095Y-109402857D01*
X197385714Y-109307619D01*
X197433333Y-109260000D01*
X197528571Y-109212381D01*
X197766667Y-109212381D01*
X197909524Y-109260000D01*
X198242857Y-109212381D02*
X198480952Y-110212381D01*
X198671429Y-109498095D01*
X198861905Y-110212381D01*
X199100000Y-109212381D01*
X200004762Y-110212381D02*
X199433333Y-110212381D01*
X199719047Y-110212381D02*
X199719047Y-109212381D01*
X199623809Y-109355238D01*
X199528571Y-109450476D01*
X199433333Y-109498095D01*
X200195238Y-110307619D02*
X200957143Y-110307619D01*
X201385714Y-109212381D02*
X201576191Y-109212381D01*
X201671429Y-109260000D01*
X201766667Y-109355238D01*
X201814286Y-109545714D01*
X201814286Y-109879048D01*
X201766667Y-110069524D01*
X201671429Y-110164762D01*
X201576191Y-110212381D01*
X201385714Y-110212381D01*
X201290476Y-110164762D01*
X201195238Y-110069524D01*
X201147619Y-109879048D01*
X201147619Y-109545714D01*
X201195238Y-109355238D01*
X201290476Y-109260000D01*
X201385714Y-109212381D01*
X202242857Y-110212381D02*
X202242857Y-109212381D01*
X202814286Y-110212381D01*
X202814286Y-109212381D01*
X197056762Y-129182762D02*
X197199619Y-129230381D01*
X197437715Y-129230381D01*
X197532953Y-129182762D01*
X197580572Y-129135143D01*
X197628191Y-129039905D01*
X197628191Y-128944667D01*
X197580572Y-128849429D01*
X197532953Y-128801810D01*
X197437715Y-128754190D01*
X197247238Y-128706571D01*
X197152000Y-128658952D01*
X197104381Y-128611333D01*
X197056762Y-128516095D01*
X197056762Y-128420857D01*
X197104381Y-128325619D01*
X197152000Y-128278000D01*
X197247238Y-128230381D01*
X197485334Y-128230381D01*
X197628191Y-128278000D01*
X197961524Y-128230381D02*
X198199619Y-129230381D01*
X198390096Y-128516095D01*
X198580572Y-129230381D01*
X198818667Y-128230381D01*
X199152000Y-128325619D02*
X199199619Y-128278000D01*
X199294857Y-128230381D01*
X199532953Y-128230381D01*
X199628191Y-128278000D01*
X199675810Y-128325619D01*
X199723429Y-128420857D01*
X199723429Y-128516095D01*
X199675810Y-128658952D01*
X199104381Y-129230381D01*
X199723429Y-129230381D01*
X199913905Y-129325619D02*
X200675810Y-129325619D01*
X201104381Y-128230381D02*
X201294858Y-128230381D01*
X201390096Y-128278000D01*
X201485334Y-128373238D01*
X201532953Y-128563714D01*
X201532953Y-128897048D01*
X201485334Y-129087524D01*
X201390096Y-129182762D01*
X201294858Y-129230381D01*
X201104381Y-129230381D01*
X201009143Y-129182762D01*
X200913905Y-129087524D01*
X200866286Y-128897048D01*
X200866286Y-128563714D01*
X200913905Y-128373238D01*
X201009143Y-128278000D01*
X201104381Y-128230381D01*
X202294858Y-128706571D02*
X201961524Y-128706571D01*
X201961524Y-129230381D02*
X201961524Y-128230381D01*
X202437715Y-128230381D01*
X203152001Y-128706571D02*
X202818667Y-128706571D01*
X202818667Y-129230381D02*
X202818667Y-128230381D01*
X203294858Y-128230381D01*
X101167619Y-103814762D02*
X101310476Y-103862381D01*
X101548572Y-103862381D01*
X101643810Y-103814762D01*
X101691429Y-103767143D01*
X101739048Y-103671905D01*
X101739048Y-103576667D01*
X101691429Y-103481429D01*
X101643810Y-103433810D01*
X101548572Y-103386190D01*
X101358095Y-103338571D01*
X101262857Y-103290952D01*
X101215238Y-103243333D01*
X101167619Y-103148095D01*
X101167619Y-103052857D01*
X101215238Y-102957619D01*
X101262857Y-102910000D01*
X101358095Y-102862381D01*
X101596191Y-102862381D01*
X101739048Y-102910000D01*
X102072381Y-102862381D02*
X102310476Y-103862381D01*
X102500953Y-103148095D01*
X102691429Y-103862381D01*
X102929524Y-102862381D01*
X103215238Y-102862381D02*
X103834286Y-102862381D01*
X103500952Y-103243333D01*
X103643810Y-103243333D01*
X103739048Y-103290952D01*
X103786667Y-103338571D01*
X103834286Y-103433810D01*
X103834286Y-103671905D01*
X103786667Y-103767143D01*
X103739048Y-103814762D01*
X103643810Y-103862381D01*
X103358095Y-103862381D01*
X103262857Y-103814762D01*
X103215238Y-103767143D01*
X104024762Y-103957619D02*
X104786667Y-103957619D01*
X104977143Y-103814762D02*
X105120000Y-103862381D01*
X105358096Y-103862381D01*
X105453334Y-103814762D01*
X105500953Y-103767143D01*
X105548572Y-103671905D01*
X105548572Y-103576667D01*
X105500953Y-103481429D01*
X105453334Y-103433810D01*
X105358096Y-103386190D01*
X105167619Y-103338571D01*
X105072381Y-103290952D01*
X105024762Y-103243333D01*
X104977143Y-103148095D01*
X104977143Y-103052857D01*
X105024762Y-102957619D01*
X105072381Y-102910000D01*
X105167619Y-102862381D01*
X105405715Y-102862381D01*
X105548572Y-102910000D01*
X105977143Y-103862381D02*
X105977143Y-102862381D01*
X105977143Y-103338571D02*
X106548572Y-103338571D01*
X106548572Y-103862381D02*
X106548572Y-102862381D01*
X107024762Y-102862381D02*
X107024762Y-103671905D01*
X107072381Y-103767143D01*
X107120000Y-103814762D01*
X107215238Y-103862381D01*
X107405715Y-103862381D01*
X107500953Y-103814762D01*
X107548572Y-103767143D01*
X107596191Y-103671905D01*
X107596191Y-102862381D01*
X107929524Y-102862381D02*
X108500953Y-102862381D01*
X108215238Y-103862381D02*
X108215238Y-102862381D01*
X108691429Y-102862381D02*
X109262858Y-102862381D01*
X108977143Y-103862381D02*
X108977143Y-102862381D01*
X109596191Y-103338571D02*
X109929525Y-103338571D01*
X110072382Y-103862381D02*
X109596191Y-103862381D01*
X109596191Y-102862381D01*
X110072382Y-102862381D01*
X111072382Y-103862381D02*
X110739048Y-103386190D01*
X110500953Y-103862381D02*
X110500953Y-102862381D01*
X110881906Y-102862381D01*
X110977144Y-102910000D01*
X111024763Y-102957619D01*
X111072382Y-103052857D01*
X111072382Y-103195714D01*
X111024763Y-103290952D01*
X110977144Y-103338571D01*
X110881906Y-103386190D01*
X110500953Y-103386190D01*
X199909667Y-142549762D02*
X200052524Y-142597381D01*
X200290620Y-142597381D01*
X200385858Y-142549762D01*
X200433477Y-142502143D01*
X200481096Y-142406905D01*
X200481096Y-142311667D01*
X200433477Y-142216429D01*
X200385858Y-142168810D01*
X200290620Y-142121190D01*
X200100143Y-142073571D01*
X200004905Y-142025952D01*
X199957286Y-141978333D01*
X199909667Y-141883095D01*
X199909667Y-141787857D01*
X199957286Y-141692619D01*
X200004905Y-141645000D01*
X200100143Y-141597381D01*
X200338239Y-141597381D01*
X200481096Y-141645000D01*
X200814429Y-141597381D02*
X201052524Y-142597381D01*
X201243001Y-141883095D01*
X201433477Y-142597381D01*
X201671572Y-141597381D01*
X202481096Y-141930714D02*
X202481096Y-142597381D01*
X202243000Y-141549762D02*
X202004905Y-142264048D01*
X202623953Y-142264048D01*
X190309667Y-154836762D02*
X190452524Y-154884381D01*
X190690620Y-154884381D01*
X190785858Y-154836762D01*
X190833477Y-154789143D01*
X190881096Y-154693905D01*
X190881096Y-154598667D01*
X190833477Y-154503429D01*
X190785858Y-154455810D01*
X190690620Y-154408190D01*
X190500143Y-154360571D01*
X190404905Y-154312952D01*
X190357286Y-154265333D01*
X190309667Y-154170095D01*
X190309667Y-154074857D01*
X190357286Y-153979619D01*
X190404905Y-153932000D01*
X190500143Y-153884381D01*
X190738239Y-153884381D01*
X190881096Y-153932000D01*
X191214429Y-153884381D02*
X191452524Y-154884381D01*
X191643001Y-154170095D01*
X191833477Y-154884381D01*
X192071572Y-153884381D01*
X192928715Y-153884381D02*
X192452524Y-153884381D01*
X192404905Y-154360571D01*
X192452524Y-154312952D01*
X192547762Y-154265333D01*
X192785858Y-154265333D01*
X192881096Y-154312952D01*
X192928715Y-154360571D01*
X192976334Y-154455810D01*
X192976334Y-154693905D01*
X192928715Y-154789143D01*
X192881096Y-154836762D01*
X192785858Y-154884381D01*
X192547762Y-154884381D01*
X192452524Y-154836762D01*
X192404905Y-154789143D01*
X190257667Y-138866762D02*
X190400524Y-138914381D01*
X190638620Y-138914381D01*
X190733858Y-138866762D01*
X190781477Y-138819143D01*
X190829096Y-138723905D01*
X190829096Y-138628667D01*
X190781477Y-138533429D01*
X190733858Y-138485810D01*
X190638620Y-138438190D01*
X190448143Y-138390571D01*
X190352905Y-138342952D01*
X190305286Y-138295333D01*
X190257667Y-138200095D01*
X190257667Y-138104857D01*
X190305286Y-138009619D01*
X190352905Y-137962000D01*
X190448143Y-137914381D01*
X190686239Y-137914381D01*
X190829096Y-137962000D01*
X191162429Y-137914381D02*
X191400524Y-138914381D01*
X191591001Y-138200095D01*
X191781477Y-138914381D01*
X192019572Y-137914381D01*
X192829096Y-137914381D02*
X192638619Y-137914381D01*
X192543381Y-137962000D01*
X192495762Y-138009619D01*
X192400524Y-138152476D01*
X192352905Y-138342952D01*
X192352905Y-138723905D01*
X192400524Y-138819143D01*
X192448143Y-138866762D01*
X192543381Y-138914381D01*
X192733858Y-138914381D01*
X192829096Y-138866762D01*
X192876715Y-138819143D01*
X192924334Y-138723905D01*
X192924334Y-138485810D01*
X192876715Y-138390571D01*
X192829096Y-138342952D01*
X192733858Y-138295333D01*
X192543381Y-138295333D01*
X192448143Y-138342952D01*
X192400524Y-138390571D01*
X192352905Y-138485810D01*
X180605667Y-142549762D02*
X180748524Y-142597381D01*
X180986620Y-142597381D01*
X181081858Y-142549762D01*
X181129477Y-142502143D01*
X181177096Y-142406905D01*
X181177096Y-142311667D01*
X181129477Y-142216429D01*
X181081858Y-142168810D01*
X180986620Y-142121190D01*
X180796143Y-142073571D01*
X180700905Y-142025952D01*
X180653286Y-141978333D01*
X180605667Y-141883095D01*
X180605667Y-141787857D01*
X180653286Y-141692619D01*
X180700905Y-141645000D01*
X180796143Y-141597381D01*
X181034239Y-141597381D01*
X181177096Y-141645000D01*
X181510429Y-141597381D02*
X181748524Y-142597381D01*
X181939001Y-141883095D01*
X182129477Y-142597381D01*
X182367572Y-141597381D01*
X182653286Y-141597381D02*
X183319953Y-141597381D01*
X182891381Y-142597381D01*
X104786667Y-148264762D02*
X104929524Y-148312381D01*
X105167620Y-148312381D01*
X105262858Y-148264762D01*
X105310477Y-148217143D01*
X105358096Y-148121905D01*
X105358096Y-148026667D01*
X105310477Y-147931429D01*
X105262858Y-147883810D01*
X105167620Y-147836190D01*
X104977143Y-147788571D01*
X104881905Y-147740952D01*
X104834286Y-147693333D01*
X104786667Y-147598095D01*
X104786667Y-147502857D01*
X104834286Y-147407619D01*
X104881905Y-147360000D01*
X104977143Y-147312381D01*
X105215239Y-147312381D01*
X105358096Y-147360000D01*
X105691429Y-147312381D02*
X105929524Y-148312381D01*
X106120001Y-147598095D01*
X106310477Y-148312381D01*
X106548572Y-147312381D01*
X107072381Y-147740952D02*
X106977143Y-147693333D01*
X106929524Y-147645714D01*
X106881905Y-147550476D01*
X106881905Y-147502857D01*
X106929524Y-147407619D01*
X106977143Y-147360000D01*
X107072381Y-147312381D01*
X107262858Y-147312381D01*
X107358096Y-147360000D01*
X107405715Y-147407619D01*
X107453334Y-147502857D01*
X107453334Y-147550476D01*
X107405715Y-147645714D01*
X107358096Y-147693333D01*
X107262858Y-147740952D01*
X107072381Y-147740952D01*
X106977143Y-147788571D01*
X106929524Y-147836190D01*
X106881905Y-147931429D01*
X106881905Y-148121905D01*
X106929524Y-148217143D01*
X106977143Y-148264762D01*
X107072381Y-148312381D01*
X107262858Y-148312381D01*
X107358096Y-148264762D01*
X107405715Y-148217143D01*
X107453334Y-148121905D01*
X107453334Y-147931429D01*
X107405715Y-147836190D01*
X107358096Y-147788571D01*
X107262858Y-147740952D01*
X152882714Y-143250857D02*
X152882714Y-144222286D01*
X152939857Y-144336571D01*
X152997000Y-144393714D01*
X153111286Y-144450857D01*
X153339857Y-144450857D01*
X153454143Y-144393714D01*
X153511286Y-144336571D01*
X153568429Y-144222286D01*
X153568429Y-143250857D01*
X154082714Y-143365143D02*
X154139857Y-143308000D01*
X154254143Y-143250857D01*
X154539857Y-143250857D01*
X154654143Y-143308000D01*
X154711286Y-143365143D01*
X154768429Y-143479429D01*
X154768429Y-143593714D01*
X154711286Y-143765143D01*
X154025572Y-144450857D01*
X154768429Y-144450857D01*
X160592381Y-135254905D02*
X161401905Y-135254905D01*
X161497143Y-135207286D01*
X161544762Y-135159667D01*
X161592381Y-135064429D01*
X161592381Y-134873952D01*
X161544762Y-134778714D01*
X161497143Y-134731095D01*
X161401905Y-134683476D01*
X160592381Y-134683476D01*
X161592381Y-133683476D02*
X161592381Y-134254905D01*
X161592381Y-133969191D02*
X160592381Y-133969191D01*
X160735238Y-134064429D01*
X160830476Y-134159667D01*
X160878095Y-134254905D01*
M02*
